<?xml version="1.0" encoding="UTF-8"?>
<svg id="Layer_2" data-name="Layer 2" xmlns="http://www.w3.org/2000/svg" viewBox="0 0 571.78 232.3">
  <g id="Layer_1-2" data-name="Layer 1">
    <path d="M7.61,183.05c25.8-.03,51.62.04,77.42,0h1.27c93.48-.12,187-.04,280.49,0h29.19c56.04.03,112.12-.02,168.17,0,5.19,2.66,7.98,6.95,7.6,12.98s-4.96,8.38-5.59,13.47c-.29,2.32,2.31,3.65,1.37,7.63-.73,3.09-2.84,4.1-3.67,5.86-1.12,2.36-.76,6.57-3.52,8.53-137.53.45-275.19-.78-412.83-.35-43.53.13-87.66.07-131.35.63-2.83.04-3.82,1.86-5.91-1.65-1.38-2.32-1.21-5.23-2.16-7.34-.8-1.78-2.97-2.85-3.5-5.37-.71-3.41.83-8.8-.13-13.03-.07-.33-4.2-3.17-4.46-4.88v-8.24c1.68-2.36,4.75-7.78,7.62-8.24h0ZM5.08,188.75c-.61.87-1.16.38-1.9,2.53-1.16,3.36-.46,13.52,3.46,10.14,2.5-2.15.98-3.07.35-5.07,1.53-.1,2.94.53,4.44.63.63.04,1.27-.02,1.9,0,1.49,1.64,4.86-.37,6.35,1.27-.75.07-1.92.51-3.17.63-.05,0-.36-.47-.81-.42-3.39.38-3.67.38-6.17,2.32-4.26,3.31-3.28,4.62-1.9,9.5,4-1.25,1.09-2.83,3.17-5.07.02.42-.03.85,0,1.27.15,2.12.5.97,2.73,1.39l.44.51c-4.28.15-2.5.17-4.44,2.53-.95,1.15-.68.42-1.9,2.73-.39.74-2.31.12-.79,3.44,1.93,4.21,4.67,1.97,5.23-1.74,2.53,1.66,2.95,1.13,5.71,1.27.42.02.85,0,1.27,0l-.63,1.27c-2.54.22-2.22-.13-4.44,1.27-3.61,2.27-3.99,4.32-2.23,8.24,2.11,4.7,5.83,2.92,10.15,3.17,30.99,1.8,62.77-.22,93.93-.63,24.32-.33,48.33-.4,72.65-.64h1.9c80.13-.75,160.33-.6,240.51,0,1.69,0,3.39,0,5.08,0,.1,0,.43.62,1.9.63h1.27c12.47.1,25.03.54,37.44.63h1.9c1.06,0,2.12,0,3.17,0,2.32-.02,4.66.03,6.98,0h67.6c1.56.26,1.06-1.71,1.22-1.75.4-.1,1.37.83,2.3-.39,2.34-3.07.96-6.86-2.53-8.29-.32-.13-.65.31-.69.3-.83-.17-1.42-.5-2.54-.63v-1.27c.83.03,4.19-.05,4.44,0,1.61.35,2.47,2.62,3.38,2.47,1.61-.19,3.2-3.44,3.49-4.84.65-3.22-1.88-4.96-3.69-7.13.63,0,2.18.19,2.47-.07s1.35-5.31,1.34-6.27c0-.4.09-.97,0-1.27,4.49,1.14,4.19-7.11,3.85-9.83-.16-1.26-1.06-1.17-1.31-1.58-1.48-2.47-2.73-4.64-5.71-5.7-.54-.19-1.17-1-2.15-.68-154.99.29-309.78-.16-464.91.05h-10.79c-25.02.04-50.12-.15-75.12.17-1.41.3-3.34,3.65-4.21,4.9h.01ZM11.42,197.62h-2.53v.62h2.53v-.62Z" fill="#1e222a"/>
    <path d="M556.53,205.85c.1.02,1.5.5,1.9.63.38.13,2.95,1.28,3.06,1.4.3.34.02,1.02.11,1.13h-1.9c-.34-.51-.72-.54-1.27-.63.43-1.79-1.82-1.41-3.17-1.27-.21.02-.42,0-.63,0h-4.44v-.63c.63-.04,1.27.02,1.9,0,.57,0,1.15-.63,1.27-.63.95-.03,2.3-.14,3.17,0h0Z" fill="#1e222a"/>
    <path d="M366.79,183.05c-93.48-.04-187-.12-280.49,0h280.49Z" fill="#90908e"/>
    <path d="M564.15,183.05c-56.04-.02-112.12.03-168.17,0h168.17Z" fill="#90908e"/>
    <path d="M85.03,183.05c-25.8.04-51.62-.03-77.42,0h77.42Z" fill="#90908e"/>
    <path d="M548.92,172.28c.3.04.57.33.63.63l-48.86-.63h.63c14.6,1.53,33.51-2.04,47.59,0h0Z" fill="#1e222a"/>
    <path d="M391.54,183.05h-23.48c.66-1.05,2.41-.63,3.48-.64,5.5-.07,11.02-.06,16.52,0,1.07,0,2.82-.4,3.48.64Z" fill="#90908e"/>
    <path d="M84.4,183.68c2.99,1.07,7.84,1.06,10.79,0,155.13-.21,309.92.24,464.91-.05.98-.32,1.61.49,2.15.68-.16,1.61,1.06,2-1.11,1.44-6.36-1.63-13.29-.45-19.83-.8-16.76-1.5-37.95.03-55.21,0h-1.27c-7.18,0-14.39,0-21.58,0h-26.65c-57.76-.05-115.49,0-173.24,0h-15.23c-61.34,0-123.39-.41-184.67.63-3.35.06-7.26-1.08-11.13-.65-1.71.19-2.95,1.32-4.45,1.35-1.18.03-.57-1.22-1.83-1.38-4.76-.6-12.38.02-17.49.05-3.9.02-14.4-.74-17.32.13-1.04.31-4.15,3.54-4.25,4.94-.21,0-.43.03-.63,0-1.18-.15-1.46.49-1.27-1.27.87-1.24,2.79-4.59,4.21-4.9,25-.33,50.09-.14,75.12-.17h-.02Z" fill="#e8cc7d"/>
    <path d="M27.92,197.62c.63-.03,1.27.02,1.9,0,1.46-.04,2.98,0,4.44,0,3.71-.02,8.05-.04,12.06,0,1.41,0,4.14.61,6.35.63l-.02.84c-2.14.79-1.06,2.9-1.25,4.86-1.04.1-2.13-.08-3.17,0-.64.05-1.46-.35-1.26.62,2.11,1.55,5.05,2.04,7.61.65,1.81.15,4.01.57,5.71.63,3.82,1.15,8.64.65,12.69.63h2.54c.69,1.06,2.61.62,3.81.63-1.3,1.37-3.65.3-5.27.65-.45.1-.48.98-.94,1.2-.86.42-2.67.2-2.68,1.32h8.88c.14,1.12-1.43.6-2.21.63-2.99.12-6.76-.4-9.54-.04-1.17.15-1.38,1.28-1.57,1.31-2.71-1.72-6.37-.08-9.18.03-8.72.34-17.34-.46-25.98-1.35-4.83-.5-9.35-1.91-14.34-1.84-.43-.91-1.71-.66-2.54-.63l-.44-.51c-2.23-.42-2.58.73-2.73-1.39,3.06,1.05,6.34.53,9.52.63v-1.9l-4.44-.63h6.34c.45-2.15-2.52-.95-4.41-1.62-1.73-.62-2.14-2.35-2.57-2.82,1.35.15,1.42.08,1.27-1.27,1.26-.12,2.42-.56,3.17-.63,2.55-.23,5.75-.53,8.25-.63Z" fill="#cc8d41"/>
    <path d="M16.5,209.02c4.99-.07,9.51,1.34,14.34,1.84,8.64.89,17.27,1.69,25.98,1.35,2.8-.11,6.46-1.74,9.18-.03-7.6,1.25-15.48.35-23.17.63-.77.03-2.36-.48-2.21.63,9.17,1.15,18.34,2.35,27.63,1.88l12.35,1.29h-11.73l-32.68,3.17c13.74,3.15,27.96,1.17,41.88,3.18-1.48,2.15-6.09.07-8.54-.03-3.97-.16-7.72.46-11.45.53-2.68.05-7.83-2-9.84.75l24.75.64c-14.02-.23-28.18-.18-42.21,0-1.07,0-2.82-.41-3.48.64-3.63-.08-7.19-.06-10.79-.63,0-.23-1.17-4.22-1.27-4.43.84-3.89,7.72-.5,10.15-2.53,1.26-.06,2.54.05,3.81,0,2.3-.09,4.74-.57,6.98-.63,2.74,1.08,6.85.76,9.84.63.77-.03,2.36.48,2.21-.63h-8.88c-1.46-1.17-4.35-.63-6.35-.64-4.54-1.06-10.69-1.06-15.23,0-2.76-.14-3.19.4-5.71-1.27-.07-.05-1.16-1.14-1.27-1.27-.57-6.07.84-5,5.71-5.07h0Z" fill="#c48136"/>
    <path d="M246.85,226.13c8.63.44,17.54.98,26.36.63,1.22-.05,2.55.65,2.19-1.27,20.93.04,41.89.04,62.82,0,.42,2.57-4.6.8-5.07,2.53,6.43-.86,12.89-.55,19.38-.65,4.53-.07,10.06.65,14.61.08,1.21-.15.6-1.21,1.82-1.37,4.49-.57,7.02.97,10.8,1.35,2.5.25,5.41-.25,7.96-.04l-1.26-1.25h22.52c1.03.89-.71.61-1.26.63-1.83.05-4.01-.22-5.73,0-.93.12-1.98.49-.94,1.27l29.82,1.27c-80.18-.6-160.38-.75-240.51,0l11.11-1.26c11.96-.43,23.95-1.36,35.85-1.91,3.54-.16,6.08-.18,9.52,0h.01Z" fill="#5d2c10"/>
    <path d="M555.26,207.12c-.47,2.14,1.55.99,3.17,1.27.55.09.93.12,1.27.63,1.92,2.92,2.42,6.42-1.27,8.24-2.86,1.41-5.82-.25-8.25,1.27-.74.03-2.67-.48-2.53.63,1.61.25,3.38.98,4.97,1.15.92.1,1.3-.52,1.37-.51,1.12.13,1.7.46,2.54.63v.63c-1.27,5.63-8.66,4.3-13.33,4.43-.66-1.05-2.41-.63-3.48-.64-4.55-.06-9.11,0-13.65,0l4.42-2.24,8.27-1.56c-2.2-.13-4.46.17-6.65,0-6.5-.54-13.11-1.66-19.65-1.92-8.86-.35-17.82.39-26.69.03-.77-.03-2.36.48-2.21-.63,7.05-.69,14.22-.59,21.28-1.25,6.07-.56,12.96-2.2,19.11-2.53,2.05-.11,4.38,1.01,6.36.99,4.96-.05,10.16-.19,15.13-.39.78-.03,2.36.48,2.21-.63h-21.58v-.63h18.4v-.63h-10.79l9.89-1.85,8.51.57c-.3-1.22-2.69-.43-3.96-.79-3.49-.99-7.36-3.65-11.27-3.01-.13-1.11,1.79-.6,2.54-.63,4.55-.16,9.15.18,13.7.03.84-.03,1.43-.65,1.53-.66.21,0,.43.02.63,0h.01ZM543.2,218.53c-11.81-.25-23.68-1.29-35.54-.32,11.06.68,22.21,1.41,33.33.95.77-.03,2.36.48,2.21-.63h0Z" fill="#c48136"/>
    <path d="M556.53,221.06c1.72,3.06-2.27,4.73-4.84,4.99-11.84,1.2-26.84.3-39.24.74-4.33.16-8.71-.17-13.03-.02.42,1.76,4.47-.78,3.8,1.89l-5.07.64h11.42c.14,1.12-1.43.6-2.21.63-5.71.24-11.47-.17-17.19-.03-.82.02-1.45.66-1.54.66-2.32.03-4.66-.02-6.98,0-.36-1.69.84-1.25,1.89-1.56,2.02-.6,4.14-.92,6.15-1.53,1.03-.32,1.79.51,1.48-1.34h-47.59c-.29,1.89.42,1.07,1.59,1.25.81.12,3.58.65,3.8.65h16.5c.19,0,.87-.6,1.81-.6.51,0,4.03.47,4.22,1.23-9.63.31-19.23.53-28.88.63-1.07,0-2.82-.4-3.48.64h-1.27l-1.9-.63c-1.69,0-3.39,0-5.08,0l-29.82-1.27c-1.04-.77.01-1.15.94-1.27,1.73-.22,3.9.06,5.73,0,.55-.02,2.28.26,1.26-.64h-22.52l1.26,1.26c-2.56-.21-5.47.3-7.96.04-3.78-.39-6.3-1.92-10.8-1.35-1.21.15-.6,1.21-1.82,1.37-4.55.57-10.08-.15-14.61-.08-6.49.1-12.94-.21-19.38.65.47-1.73,5.5.05,5.07-2.53,3.44,0,7.73.54,10.79-.63,21.85,0,44.02,0,65.65-.03,7.09,0,14.2.07,21.28.03,8.92,1.21,19.82.57,29.19.63,25.9.17,52.15.75,78.05,0,4.67-.14,12.06,1.2,13.33-4.43h0ZM430.25,226.13h-19.04v.63h19.04v-.63Z" fill="#49230f"/>
    <path d="M15.23,220.43c.1.21,1.28,4.2,1.27,4.43-.02.61-1.51,1.26-.96,1.89,2.6-1.2,6.38-.43,9.21,0-.31,2.18,4.47,1.67,5.71,1.89-.81-1.29-4.17-1.65-5.71-1.89h63.46l-1.26,1.26,1.9,1.27-5.38-.64v1.28c15.63-.39,31.35-.12,46.98-.61,7.44-.23,14.94-.83,22.23-1.87,4.37-.62,4.4,1.1,5.62,1.26,9.36,1.22,20.49-1.99,28.63-1.32,1.94.16,1.63-.33,1.55,1.9-24.32.24-48.33.31-72.65.64-31.16.42-62.94,2.43-93.93.63-4.32-.25-8.04,1.53-10.15-3.17-1.76-3.92-1.39-5.97,2.23-8.24.07.63,1.19,1.1,1.27,1.27h-.02Z" fill="#5d2c10"/>
    <path d="M567.96,190.02c-.63-.13-1.38-.25-1.9-.63-1.18-.86-1.39-1.92-2.53-2.53-.58,2.41,3.33,2.24-.01,3.48,2.12.49,1.13,2.28,1.28,4.12-1.36,2.72-1.05,1.32-3.81,2.53-3.16-.08-6.36.07-9.52,0-7.53-.16-15.11-1.42-22.85-1.27l-6.98-1.26c7.75-.02,15.43-.32,23.17-.64.77-.03,2.36.48,2.21-.63h-54.57c.08,0,.72-.65,1.54-.67,16.51-.31,32.96.12,49.23-2.51-.92-2.1-4-.27-5.71-.63,1.91-2.55,6.69-.73,9.52-1.27-.62-1.51-2.62-.73-1.26-2.52-1.59.65-3.58-.56-4.45-.64,6.54.35,13.47-.83,19.83.8,2.18.56.95.17,1.11-1.44,2.98,1.06,4.23,3.24,5.71,5.7h-.01Z" fill="#c48136"/>
    <path d="M28.56,184.95c-.18,2.31,3.38.71,2.54,3.8-3.03-.08-5.89,1.34-8.25,3.17,2.47.38,6.2-.52,8.45.02.55.13.19,1.32,1.34,1.31,2.19-.03,4.57-.76,7.34-.69,2.58.07,4.93.65,7.27.66,8.59.07,17.12-1.23,25.73-.66.15,1.11-1.44.6-2.21.63-2.53.1-5.08-.1-7.62,0l-26.34,2.53c-.15,1.11,1.44.6,2.21.63,8.09.33,16.44.66,24.44,0-1.2,2.63-3.7,1.26-5.39,1.39-1.87.14-3.32.53-5.4.51-2.2-.02-4.94-.62-6.35-.63l5.07-.63c-5.61.35-11.7-.78-17.13.63-1.46,0-2.98-.04-4.44,0,.35-1.92-.97-1.22-2.19-1.27-4.21-.17-8.52-.06-12.73,0-1.07,0-2.82-.4-3.48.64-1.5-.1-2.91-.74-4.44-.63-.06-.19.06-.44,0-.63l-.63-5.07,8.25.63c-1.33-2.17-5.28-1.14-7.62-1.26.1-1.39,3.22-4.63,4.25-4.94,2.93-.87,13.42-.11,17.32-.13h0ZM30.46,192.56h-3.17v.62h3.17s0-.62,0-.62Z" fill="#c48136"/>
    <path d="M488.63,230.56c.08,0,.72-.64,1.54-.66,5.72-.14,11.48.26,17.19.03.78-.03,2.36.48,2.21-.63h-11.42l5.07-.64c.67-2.67-3.38-.13-3.8-1.89,4.33-.15,8.7.18,13.03.02,12.39-.45,27.4.46,39.24-.74,2.57-.26,6.56-1.93,4.84-4.99v-.63s.37-.43.69-.3c3.49,1.43,4.87,5.21,2.53,8.29-.93,1.22-1.9.29-2.3.39-.15.04.34,2.01-1.22,1.76h-67.6ZM544.79,227.4h-23.16c-.14,1.11,1.44.61,2.21.63,4.36.16,8.66.57,13.01.64l-3.17,1.26h9.52c.07,0-.26-1.1.42-1.28,1.39-.37,3.72.27,5.29,0l-4.12-1.26h0Z" fill="#5d2c10"/>
    <path d="M439.14,229.93c.66-1.05,2.41-.63,3.48-.64,9.65-.1,19.25-.32,28.88-.63-.18-.76-3.71-1.23-4.22-1.23-.94,0-1.62.6-1.81.6h-16.5c-.22,0-2.99-.53-3.8-.65-1.17-.17-1.88.65-1.59-1.25h47.59c.32,1.86-.44,1.03-1.48,1.34-2,.61-4.13.93-6.15,1.53-1.05.31-2.25-.13-1.89,1.56-1.06,0-2.12,0-3.17,0,.56-1.89-2.4-2.01-1.9,0-12.41-.09-24.97-.53-37.44-.63Z" fill="#5d2c10"/>
    <path d="M567.96,190.02c.25.41,1.15.32,1.31,1.58.34,2.72.64,10.97-3.85,9.83-.35-1.19-2.39-2.44-3.17-3.49l1.9-.94c-1.05-.03-2.12.02-3.17,0,2.75-1.21,2.45.19,3.81-2.53.83-1.67,1.38-3.17,1.27-5.07.52.38,1.27.51,1.9.63h0Z" fill="#5d2c10"/>
    <path d="M565.42,202.69c.01.96-1.06,6.02-1.34,6.27s-1.83.07-2.47.07c-.09-.11.19-.79-.11-1.13-.11-.13-2.68-1.28-3.06-1.4.67-.54-.01-1.2,0-1.27.19-1.16,1.2-3.57,1.9-4.43.07-.09,1.69-.15,1.58-1.26l3.49,3.17v-.02Z" fill="#5d2c10"/>
    <path d="M561.61,209.02c1.81,2.17,4.34,3.91,3.69,7.13-.28,1.4-1.88,4.65-3.49,4.84-.91.16-1.77-2.12-3.38-2.47v-1.27c3.69-1.82,3.19-5.31,1.27-8.24h1.91Z" fill="#5d2c10"/>
    <path d="M3.17,191.28c.75-.6,1.64-.36,2.42.12-.2,1.75,1.01,3.13,1.39,4.31.06.19-.06.44,0,.63.63,2,2.15,2.92-.35,5.07-3.92,3.38-4.62-6.78-3.46-10.14h0Z" fill="#5d2c10"/>
    <path d="M9.52,210.92c-.18,1.57.43,2.13,1.27,3.17.1.13,1.19,1.22,1.27,1.27-.56,3.71-3.29,5.95-5.23,1.74-1.52-3.32.4-2.7.79-3.44,1.22-2.32.95-1.58,1.9-2.73h0Z" fill="#5d2c10"/>
    <path d="M10.79,202.05c.18.8-.04,2.2,0,3.17-2.08,2.24.84,3.82-3.17,5.07-1.38-4.89-2.36-6.19,1.9-9.5.05.61,1.25,1.18,1.27,1.27h0Z" fill="#5d2c10"/>
    <path d="M560.98,196.98c1.05.03,2.12-.03,3.17,0l-1.9.94c.78,1.05,2.82,2.3,3.17,3.49.09.29,0,.87,0,1.27l-3.49-3.17c.11,1.11-1.51,1.18-1.58,1.26.95-2.32-3.69-2.86-5.71-3.17-.97-.14-2.62.47-3.17-.63,3.16.07,6.36-.08,9.52,0h0Z" fill="#49230f"/>
    <path d="M27.92,197.62c-2.5.11-5.7.4-8.25.63-1.49-1.64-4.86.37-6.35-1.27,4.75.16,10.07-.65,14.6.63h0Z" fill="#5d2c10"/>
    <path d="M29.19,216.63v1.27c-1.26.05-2.54-.06-3.81,0-2.24.1-4.71-.19-6.98,0l.63-1.27c3.37.11,6.78,0,10.15,0h.01Z" fill="#49230f"/>
    <path d="M11.42,196.98c.66-1.05,2.41-.63,3.48-.64,4.21-.04,8.52-.16,12.73,0,1.22.05,2.55-.65,2.19,1.27-.63.02-1.27-.03-1.9,0-4.52-1.29-9.85-.47-14.6-.63-.63-.02-1.27.04-1.9,0h0Z" fill="#d7a15c"/>
    <path d="M25.38,217.89c-2.43,2.03-9.31-1.36-10.15,2.53-.07-.16-1.2-.64-1.27-1.27,2.22-1.39,1.9-1.05,4.44-1.27,2.27-.19,4.74.1,6.98,0h0Z" fill="#d7a15c"/>
    <path d="M16.5,198.89c.15,1.35.08,1.42-1.27,1.27-.71-.77-5.87-.39-4.44,1.9-.02-.09-1.22-.66-1.27-1.27,2.5-1.95,2.78-1.94,6.17-2.32.45-.05.76.43.81.42h0Z" fill="#e8cc7d"/>
    <path d="M33,216.63h-3.81c-3.37,0-6.79.11-10.15,0-.42,0-.85.02-1.27,0,4.54-1.06,10.69-1.06,15.23,0Z" fill="#cc8d41"/>
    <path d="M13.96,208.39c.83-.03,2.11-.28,2.54.63-4.87.07-6.29-1-5.71,5.07-.84-1.04-1.45-1.6-1.27-3.17,1.95-2.37.16-2.39,4.44-2.53h0Z" fill="#e8cc7d"/>
    <path d="M5.08,188.75c-.19,1.76.09,1.12,1.27,1.27v.63l.63,5.07c-.38-1.18-1.58-2.56-1.39-4.31-.78-.49-1.67-.72-2.42-.12.74-2.15,1.29-1.66,1.9-2.53h.01Z" fill="#fefefe"/>
    <path d="M550.19,218.53c1.25-.04,2.55-.04,3.81,0v1.27c-.07,0-.45.61-1.37.51-1.59-.17-3.36-.9-4.97-1.15-.13-1.11,1.79-.6,2.53-.63h0Z" fill="#5d2c10"/>
    <path d="M95.19,183.68c-2.95,1.06-7.8,1.07-10.79,0h10.79Z" fill="#fefefe"/>
    <path d="M558.44,218.53c-.25-.05-3.61.03-4.44,0-1.25-.04-2.55-.04-3.81,0,2.43-1.51,5.39.14,8.25-1.27v1.27Z" fill="#cc8d41"/>
    <path d="M476.58,230.56c-.49-2.01,2.46-1.89,1.9,0h-1.9Z" fill="#49230f"/>
    <rect x="8.89" y="197.62" width="2.53" height=".62" fill="#5d2c10"/>
    <path d="M437.87,229.93c-1.47,0-1.8-.63-1.9-.63l1.9.63Z" fill="#5d2c10"/>
    <path d="M248.12,184.95c1.69,1.06,5.79,1.08,7.62,0h3.17c.8,1.05,3.64,1.05,4.44,0,57.76,0,115.49-.05,173.24,0,.09.95,1.81.95,1.9,0h1.9c1.91,1.06,6.21,1.08,8.25,0h14.6c-.24,1.37,2.78,2.85,3.59,3.09,1.22.36.4-1.09,1.76-1.25,2.07-.25,4.07.46,6.08.7-.07.85-1.58,1.9.31,1.9.6,0,.35-3.27,1.05-3.72,1.52-.97,6.94,1.04,8.8-.72h1.27c2.63.69,1.44,1.58,2.1,2.99.12.26,1.01.25,1.08.51.11.4-1.44,3.45-1.65,3.51-.57.16-7.36.12-8.09-.05-.52-.12-.56-2.59-3.94-.02l-5.36.65c7.37.76,14.78.74,22.21.64h54.57c.15,1.11-1.44.6-2.21.63-7.74.32-15.41.62-23.17.64l6.98,1.26c-.49.75-1.11,4.28-1.28,4.44-1.17,1.14-1.29-1.29-1.62-1.3-.56-.02-1.58.64-2.5.67-1.69.05-3.43-.14-5.11,0-1.17.09-1.59-.54-1.57.96.06,4.86,9.21,0,12.07,3.48l-35.86-1.9c-2.95-.32-3.92,2.29-2.21,4.44.72.91,1.25.44,1.9.63,2.33.69,5.45,1.38,7.62,0,.41.04.89-.07,1.27,0,1.13.21,4.3,1.75,3.15,3.13-.21.26-3.25-.21-2.51,2.57-6.4-.72-15.05,1.47-21.8,1.23-4.62-.16-2.93-1.03-4.22-4.4.03-1.05-.02-2.11,0-3.17l13.33-.95c0-.67-11.96-.79-13.33-.32.03-.98-.18-4.89,0-5.07.39-.39,3.98.76,4.45-.63.33-.98-.23-3.22,0-4.44h-14.87l-.37,4.44c.29.28,3.58-.28,4.45,0,.24,3.92-.33,8.17,0,12.04-5.43.83-3.62-.68-5.22-2.38-2.42-2.54-5.55,4.75-5.56-2.06h8.88v-.63h-8.88c.37-.8.81-2.14,1.68-2.44,1.52-.51,4.42.71,5.29-.72-.97-.52-6.12.24-6.33,0-.25-.28-.08-3.21-1.28-3.81.13-2.28.65-.69,2.54-1.58-.52-.94-1.73-.6-2.36-1.16-.33-.3-.19-1.48-.81-1.69-1.09-.37-3.71.26-5.08,0-.16,2.6.23,5.35,0,7.93-.08.94.5,1.82-.95,1.58-3.16-3.83-4.93-10.92-11.11-9.51h-.63c-.41-3.95-1.17-1.74-2.78-1.86-.43-.03-.42-1.02-.85-1.29-2.97-1.89-2.41,1.09-3.06,3.11-.13.41-.9.58-.93.67-3.85-1.45-8.63-.25-12.7-.63-.03.42.03.85,0,1.27-2.02.58-1.39-2.47-2.27-2.54-1.02-.08-3.72,1.28-5.35.64-1.38,4.57,4.28,4.35,7.62,3.8-.08,1.89.03,3.81,0,5.7-.01.85,0,1.74,0,2.53v.63c-1.07,1.13-1.01,6.6,0,6.97.56.2,1.82-.14,2.54,0-.53.06-1.96,1.21-3.17.64l4.44.63c-1.1,1.79-4.47,1.67-4.44,4.43l6.97-.64c-1.37-2.35,1-1.49.64-3.8,2.12,2.49,3.12,0,3.48,0h11.74c-.73,1.9-.75,5.14-3.17,4.44-.26,1.14,1.85.07,1.26,1.57-.89,2.26-4.2.59-3.8,2.86,5.91.06,11.85-.07,17.77,0,3.8.04,7.62-.02,11.42,0v1.27c-9.37-.06-20.27.57-29.19-.63-.12-.02-.86-.49-1.9-.63-.6-1.02-3.17-1.04-3.81,0-1.05-.04-2.12.02-3.17,0-4.41-1.25-9.68-.53-14.33-.61-.82,0-1.45-.66-1.54-.66-.38-5.89-.24-3.36-3.35-3.93-1.26-.23-3.23-.78-4.59-1.12s-2.25.04-2.21-1.91c.38,0,4.35.5,3.49-.64h-9.83c-.17,1.08,1.19.6,1.9.64l-.63,3.16,3.17.63c-4.1-.59-2.93.58-3.8,3.81-5.47.04-11.03-.71-16.2-.64-1.22.02-2.56-.61-2.2,1.28-10.67,0-21.38-.14-32.06,0-1.07,0-2.82-.41-3.48.64h-3.17l-.63-.63,4.44-1.26c-5.69-.93-11.51-.77-17.13.63-.08,0-.72.64-1.54.66-3.79.1-8.26-.66-11.79.61h-1.27c-1.41-1.08-5.06-1.05-6.35,0-13.09.05-26.27-.33-39.34,0-.42,0-.85,0-1.27,0h-30.46c-3.06-1.17-7.35-.63-10.79-.63.73-2.1-5.42-1.88-4.44,0h-.63c-2.04-1.08-6.34-1.06-8.25,0-.3.04-.57.33-.63.63h-1.9c-.66-1.05-2.41-.63-3.48-.64-7.72-.08-15.46,0-23.17,0h-29.19c-.66-1.05-2.41-.63-3.48-.64-4.58-.05-9.93-.47-14.29.64.19,1.14,2.08.48,3.17.63-6.49.04-13.57.59-20.31.63-4.49-1.17-9.89-.63-14.6-.63h-.63l-.32-.62-.32.62h-1.27c-4.32-1.06-10.28-1.06-14.6,0-.3.04-.57.33-.63.63-2.32,0-4.66-.02-6.98,0-.53-1.01-2.15-.62-3.17-.63l-24.75-.64c2-2.75,7.15-.7,9.84-.75,3.73-.07,7.48-.69,11.45-.53,2.46.1,7.06,2.18,8.54.03-13.91-2.01-28.14-.03-41.88-3.18l32.68-3.15h11.73l-12.35-1.3c-9.29.46-18.46-.73-27.63-1.88-.15-1.1,1.44-.6,2.21-.63,7.69-.29,15.56.61,23.17-.63.19-.03.4-1.16,1.57-1.31,2.78-.36,6.54.17,9.54.04.78-.03,2.36.48,2.21-.63h-8.88c.01-1.12,1.82-.9,2.68-1.32.46-.22.48-1.1.94-1.2,1.62-.35,3.96.71,5.27-.65,4.11.05,8.1-.5,12.06-.63,4.63-.16,9.32.12,13.96,0,.06.27.37.53.63.63.04,2.53-.03,5.08,0,7.61,5.73.66,4.23-1.61,4.44-5.71,1.42-2.66,3.77-1.87,6.35-1.9.32,1.86-.76,5.76.63,6.97,1.04.9,4.05.89,5.08,0,.68-.59.02-.54-.17-1.38-.83-3.85.25-12.38-.2-15.95-.08-.64,1.02-1.46.37-1.67-.51-.16-3.7-.11-4.44,0-.23.03-.5-.07-.63,0-1.13.57-.39,2.27-.65,2.53-.27.29-5.3-.54-6.33-.63-.02-.63.03-1.27,0-1.9l-4.4.05c-.54,2.3-.04,4.59-.05,6.92h-.85c-.46-.41-.52-.86-1.05-1.27-.2,2.45-3.82,1.96-5.08,4.43-1.89.1-4.86.43-6.98.63.21-1.8.05-2.18-1.27-3.17-.23-.18-.55-.62-.63-.63v-.63c3.38-.1,7.11-.74,10.79-.63h.63c.84.02,1.7,0,2.54,0-.08-.06.28-.55-.93-.67-5.56-.57-12.1.5-17.79.03l.95,1.27c-8.02.28-16.09.45-24.11.64l2.54.63c-4.18.22-9.01.85-13.33,1.27.19-1.95-.89-4.07,1.25-4.86l.02-.84c2.08.02,3.53-.36,5.4-.51,1.69-.13,4.18,1.25,5.39-1.39-8,.66-16.34.33-24.44,0-.77-.03-2.36.48-2.21-.63l26.34-2.53c2.53-.11,5.08.1,7.62,0,.77-.03,2.36.48,2.21-.63-8.6-.57-17.14.72-25.73.66-2.34-.02-4.69-.6-7.27-.66l4.79-2.5c4.27.22,5.95.33,9.81-.67h11.42c.13-1.12-1.79-.61-2.54-.63-.37-1.1-.77-2.18,0-3.17,61.27-1.04,123.32-.62,184.67-.63l-.03-.05ZM463.25,187.49l-8.88-1.27c-.49,2.08,2.51,1.16,3.56,1.82l5.31-.55h.01ZM401.06,188.11h-11.42c-.56,3.83,2.43.87,4.16.67s3.38.03,5.05-.03c.78-.03,2.36.48,2.21-.64h0ZM78.05,188.75h-11.42v.63h11.42v-.63ZM481.01,188.75h-4.44v.62h4.44v-.62ZM483.55,188.75c-.89-.46-1.69.4-1.26.62.89.46,1.69-.4,1.26-.62ZM151.03,207.12s-.09.74.63.63l.63-4.43c-.34,3.88,2.47,4.56,5.72,4.43-.28-2.18.42-5.1-.03-7.14-.11-.51-3.1-2.83-2.5-3.61,4.06-2.91,9.46-6.55.65-7.33-4.62-.41-3.27.39-3.42,2.47-.21,2.85-2.37,1.23-2.96,1.68-1.13.85,1.22,1.21,1.33,2.17.07.68.62,4.75-1.32,2.9-2.37-4.11-9.14-5.03-13.33-3.8-.39.12-.57.61-.63.63-.42.15-.87.42-1.27.63-2.68,1.45-2.49.06-3.17,3.17-.96,4.36-1.56,9.65,2.31,12.55,5.31,3.98,11.21,3.88,15.46-1.45.57-.72,1.61-3.49,1.9-3.5h0ZM316.02,190.65h-9.52v.63h9.52v-.63ZM353.47,191.28h-8.88v.63h8.88v-.63ZM365.52,191.92c-3.02-.53-2.57,1.96,0,2.53v-2.53ZM252.57,196.98c-1.62-.93,1.46-4.29,1.27-4.43-3.7.33-6.63-1.7-5.71,3.16-.97.36-1.96-.58-2.54-.63-1.64-.16-3.4.06-5.05.03l-1.3,18.98c2.48-.16,4.31,1.05,5.08-1.9.1,3.32,1.21,1.53,4.45,1.9v1.9c-1.05,0-4.09-.55-4.44.63h6.02c.93-.19-.31-.59-.32-.63-.04-7-.89-3.28-2.54-5.08-.33-.36.65-1.19.64-1.26,4.15,4.87,4.14-4.81,6.97-6.34l.64,10.77c1.61-.16,3.54.23,5.08,0,.2-.03.47-.6.63-.63,1.26-.26,2.48-.74,3.8-.64l-3.16-1.58c-.85-2.59,3.27-2.21,4.97-2.66,1.13-.3,1.64.18,1.37-1.45-1.13-.2-6.75.26-6.98,0-.13-.14-.31-2.55-.63-3.81-.27-1.06.74-2.27-1.27-1.9-.16-2.09.11-4.25,0-6.34-1.49.29-4.13-.39-5.35-.04-.63.18-.18,1.22-.55,1.74-.25.36-1.05.15-1.09.2h.01ZM178.95,195.08c-2.43.35-4.98-1.1-6.35,1.27-3.26-2.16-4.33-1.38-7.62-1.27-1.9.07-3.82-.05-5.71,0l-.63,19.01c1.36-.26,4.01.37,5.08,0,1.23-.43.17-2.51.95-2.54.56.16.46,1.18.98,1.56,3.37,2.44,3.16-.27,3.52-.32,1.71-.27,2.76,1.53,3.92,1.83,1.08.27,1.7-.51,2.05-.52,1.48-.04,2.97.03,4.45,0,.56-3.2-.5-6.61-.64-9.51,1.52-1.24.09-7.7.63-8.24.31-.31,5.1.49,5.09-.32-.55-4.25-3.29-1.29-5.72-.94h0ZM353.47,194.45c-.14-.13-3.68-.78-3.81-.63-.24.28-.08,2.43.62,2.89,1.1.72,2.37-2.06,1.92,2.17l2.53-.64c.18-1.06-1.65-.63-1.85-1.61-.12-.56.86-1.93.59-2.18ZM317.29,200.79s-.19-1-.63-.63c-1.51,1.29-.49,7,.63,8.87.36.6,2.81,3.56,3.17,3.8-.23-.11-.88,0-1.23.05-.26.33.35,1.76-.39,1.89-3.06.54-6.18-.06-9.17-.04.3-1.76-4.41-6.78-4.4-7.29s4.75-2.34,3.65-7.43c-1.47-6.79-10.66-4.58-15.74-4.92-1.17,2.39-.63,6.07-.63,8.87-.97.22-3.17,1.25-3.6,2.1-.83,1.6.65,2.43-2.75,3.29l6.35.32c.02,1.39-.47,3.57.63,4.43.16.16,4.07.66,4.47.37,1.92-1.38-1.22-6.76,2.2-6.08,1.64.32,3.34,4.81,4.75,6.34h-1.26v.63c.99-.39,2.38.64,2.85.64h15.86c.37,0,2.04-.89,1.58-1.26-1.57.37-2.76-1.71-3.17-1.91,5.04,3.35,13.03,2.01,15.79-3.56,5-10.13-6.57-18.77-15.36-12.8-1.5,1.02-3.32,4.28-3.59,4.33h0ZM188.47,201.42c-2.8.41-1.1-3.65-1.27-3.8-5.29-.61-3.42.16-5.03,2.26-.57.75-1.99.74-1.97,1.24.21,4.12,5.5,2.64,8.27,2.84v1.27l-7.63.36c.17.89-.21,4.49,0,4.71.09.09,2.44.09,2.53,0,.21-.22-.29-1.79.11-2.42.15-.24,4.16-1.84,4.98-2.01.04,2.74-.03,5.5,0,8.24h12.69v-3.8c-3.77-.43-9.28,1.96-8.25-3.8h6.35c-1.74.55-2.99.94-5.08.64v1.9c5.33-.59,8.76,1.71,14.2,1.19.71-.07,3.5-.29,3.57-1.19h-10.79v-1.9c5.88-.4,11.57.86,17.46.63.77-.03,2.36.48,2.21-.63l-7.61-.65.64-1.26c-5,1.21-8.73-.81-13.97.63v-3.17c1.98-.16,2.99-.34,4.23-2.14.42-.61.12-1.66.21-1.66h9.52c.14-1.12-1.44-.6-2.21-.63-3.31-.14-7.37-.38-10.48.63.16-1.18-.1-2.58,0-3.81h-12.7c-.03,2.11.05,4.23,0,6.34h0ZM224.01,203.95c-.85.26-.65,1.46-.67,2.18-.03,1.54-.37,7.63.67,7.96.38.12,4.7.12,5.08,0,.64-.21.57-.28.65-.92.48-3.72.36-12.68,0-16.54-.07-.78.22-1.13-.66-1.55-.14-.06-.41.03-.63,0-.71-.09-4.29-.16-4.44,0-.41.43,0,7.58,0,8.87h0ZM270.33,214.09h5.08c.09-1.24-.13-2.56,0-3.8.04-.41,0-.85,0-1.27,1.59-.68,4.45-.27,5.71-.63-.19.03-.7.81-1.26.64v.62h3.8c-.26-1.15-1.46-1.41-2.54-1.26,4.31-1.25,6.09-8.02,2.8-11.35s-9.41-1.53-13.59-1.95c-1.11,4.79-.7,10.53-.65,15.53.01,1.07-.41,2.82.65,3.48h0ZM347.12,207.76c-.14-.14-.65.1-.63.32.05.69.93-.02.63-.32.04.1.74.28.9.7,1.93,5.06.78,6.41,7.92,5.58l7.04-18.94c-1.13.22-5.15-.37-5.65.06-.37.32-2.35,7.91-2.95,9.42-.31.79-.72,2.91-1.87,2.56-.61-.19-3.29-11.35-4.24-11.93-.88-.54-3.72.13-4.97-.1-.43.38,3.04,8.81,3.53,10.12.32.87.09,2.06.27,2.55l.02-.02ZM365.21,195.08v.63c.41-.21.41-.42,0-.63ZM368.69,195.09l-2.53.31c.6,1.19,1.18,1.87,2.53,2.22v-2.53ZM369.96,209.02c-3.85-.71-2.31,1.58-2.53,4.43.7.26,2.43-.71,2.53-.63.05.04-.24,1.11.41,1.28,2.92.78,8.95-.59,12.29,0v-3.81h-8.26v-3.81h6.99v-3.81c-.34-.35-5.27.37-6.35,0v-.63c1.57-1.2,3.81-.25,5.3-.61.7-.17.34-1.24.41-1.29,1.13-.85,4.51-1.82,1.9-4.43-1.53-1.53-10.06-.18-12.69-.63-.66,4.63,0,9.21,0,13.93h0ZM410.58,203.95c-.13-1.63.23-8-.7-8.8-.39-.33-3.7-.18-4.38.23-1.36.83-3.06,6.91-5.06,7.93-.6-1.14-3.53-7.89-3.92-8.13s-4.77-.24-4.94-.07c-.85.83-.84,16.33-1.3,18.98,7.91,1.63,3.33-5.23,6.03-9.5,1.94,3.55,3.32,8.85,7.29,3.8-.42,1.22-1.58,2.26-1.27,3.8h3.17c.04.63-.05,1.28,0,1.91.42.05.86-.05,1.27,0,.83.09,3.89.18,4.44,0,1.03-.33.6-1.54.63-2.53,2.6.49.65-3.21.63-5.07,1.19-.4,4.93,1.04,3.8-1.58-.67-1.57-4.21-.81-5.71-.96h.02ZM217.03,198.26c-.89-.46-1.69.4-1.26.62.89.46,1.69-.4,1.26-.62ZM514.65,201.43h-2.53v.62h2.53v-.62ZM346.48,207.12c.35-.35-.91-3.29-1.26-2.53v2.53h1.26ZM262.72,215.99c-.45-1.69-3.98-.82-5.39-.61-1.16.17-1.88-.66-1.59,1.24l6.98-.64h0ZM393.44,215.36c-1.58.03-3.18-.07-4.76,0-.77.03-2.36-.48-2.21.63,1.58-.03,3.18.07,4.76,0,.77-.03,2.36.48,2.21-.63ZM253.83,216c-2.64-.31-2.64.94,0,.62v-.62ZM313.8,218.53v.63c.41-.21.41-.42,0-.63ZM343.31,218.53h-26.65l12.98,1.3c3.15-.22,6.4.2,9.54-.04.85-.07,3.85-.31,4.13-1.26h0ZM346.48,218.53c-2.64-.31-2.64.94,0,.62v-.62ZM291.28,219.16h-9.52c-.52,2.32,2.82.91,4.16,1.3l5.36-1.3ZM298.25,219.17c-1.25.35-4.51-.81-5.07.62,1.25-.35,4.51.81,5.07-.62Z" fill="#cd944e"/>
    <path d="M541.3,184.95c.86.08,2.85,1.29,4.45.64-1.36,1.79.64,1.01,1.26,2.52-2.83.54-7.61-1.29-9.52,1.27,1.71.37,4.79-1.47,5.71.63-16.27,2.64-32.71,2.21-49.23,2.51-.82.02-1.45.66-1.54.66-7.42.1-14.83.12-22.21-.64l5.36-.65c3.38-2.57,3.42-.1,3.94.02.73.17,7.52.21,8.09.05.2-.06,1.76-3.11,1.65-3.51-.07-.26-.96-.25-1.08-.51-.67-1.41.53-2.3-2.1-2.99,17.26.03,38.45-1.5,55.21,0h.01Z" fill="#cc8d41"/>
    <path d="M28.56,184.95c5.12-.03,12.74-.66,17.49-.05,1.26.16.65,1.41,1.83,1.38,1.5-.03,2.75-1.16,4.45-1.35,3.87-.43,7.78.71,11.13.65-.77.99-.37,2.07,0,3.17-3.28-.11-5.78-.17-8.88.63-3.86,1-5.53.89-9.81.67l-4.79,2.5c-2.77-.07-5.15.66-7.34.69-1.15,0-.79-1.18-1.34-1.31-2.25-.54-5.98.37-8.45-.02,2.36-1.82,5.22-3.24,8.25-3.17.84-3.08-2.72-1.49-2.54-3.8h0Z" fill="#cc8d41"/>
    <path d="M484.83,184.95c-1.86,1.76-7.28-.25-8.8.72-.7.45-.45,3.72-1.05,3.72-1.88,0-.37-1.05-.31-1.9-2-.23-4.01-.95-6.08-.7-1.36.17-.54,1.61-1.76,1.25-.81-.24-3.83-1.72-3.59-3.09,7.18,0,14.39,0,21.58,0h0Z" fill="#cc8d41"/>
    <path d="M6.98,190.02c2.34.12,6.29-.91,7.62,1.26l-8.25-.63v-.63c.21.03.42,0,.63,0h0Z" fill="#cd944e"/>
    <path d="M448.65,184.95c-2.04,1.08-6.34,1.06-8.25,0h8.25Z" fill="#c48136"/>
    <path d="M255.74,184.95c-1.82,1.08-5.92,1.06-7.62,0h7.62Z" fill="#cc8d41"/>
    <path d="M263.35,184.95c-.8,1.05-3.64,1.05-4.44,0h4.44Z" fill="#cc8d41"/>
    <path d="M438.5,184.95c-.09.95-1.81.95-1.9,0h1.9Z" fill="#c48136"/>
    <path d="M90.11,202.05c.09.02.4.46.63.63,1.42,6.43-8.71,3.27-12.39,3.3-.92,0-1.88.5-2.84.5h-2.54c-3.86-1.29-8.59-.47-12.69-.63-1.71-.07-3.9-.49-5.71-.63-2.13-.17-4.87.69-6.35-1.27,1.05-.08,2.13.1,3.17,0,4.31-.41,9.14-1.04,13.33-1.27,3.15-.17,6.36.11,9.52,0,1.65-.06,3.67-.61,4.44-.63,2.86-.08,9.01-.49,11.42,0h0Z" fill="#1e222a"/>
    <path d="M15.23,200.15c.43.47.83,2.2,2.57,2.82,1.88.67,4.86-.52,4.41,1.61h-6.34l4.44.64v1.9c-3.18-.1-6.46.42-9.52-.63-.03-.42.02-.85,0-1.27-.04-.96.18-2.37,0-3.17-1.43-2.29,3.74-2.67,4.44-1.9Z" fill="#c48136"/>
    <path d="M34.27,197.62c5.43-1.41,11.53-.28,17.13-.63l-5.07.63c-4.01-.04-8.35-.02-12.06,0Z" fill="#d7a15c"/>
    <path d="M92.01,205.85c-.29.03-.57.34-.63.63-3.96.14-7.95.68-12.06.63-1.2,0-3.12.43-3.81-.63.96,0,1.91-.5,2.84-.5,3.68-.03,13.81,3.13,12.39-3.3,1.32.99,1.48,1.37,1.27,3.17Z" fill="#d7a15c"/>
    <path d="M72.98,206.49c-4.05.02-8.88.52-12.69-.63,4.11.16,8.83-.65,12.69.63Z" fill="#d7a15c"/>
    <path d="M48.23,203.95c1.48,1.96,4.22,1.09,6.35,1.27-2.56,1.4-5.5.91-7.61-.65-.2-.98.62-.58,1.26-.62h0Z" fill="#d7a15c"/>
    <path d="M72.98,224.86c1.02.02,2.64-.38,3.17.63-1.67,0-3.43-.12-5.08,0-.54.04-1.1.02-1.27.63-1.25.1-2.55,0-3.81,0-.66-1.05-2.41-.63-3.48-.64-11.31-.12-22.65.19-33.96,0h-1.27c.66-1.05,2.41-.63,3.48-.64,14.03-.17,28.19-.22,42.21,0h.01Z" fill="#e8cc7d"/>
    <path d="M33,216.63c1.99,0,4.88-.53,6.35.63-1.06.02-2.12-.03-3.17,0-2.24.06-4.68.54-6.98.63v-1.27h3.81,0Z" fill="#5d2c10"/>
    <path d="M39.34,217.26h8.88c.15,1.11-1.44.6-2.21.63-3,.12-7.1.44-9.84-.63,1.06-.03,2.12.02,3.17,0Z" fill="#d7a15c"/>
    <path d="M303.97,224.86h7.62c8.87-.03,17.78,0,26.65,0h10.79c-3.06,1.17-7.35.63-10.79.63-20.93.04-41.89.04-62.82,0-3.44,0-7.73.54-10.79-.63,13.08-.33,26.26.05,39.34,0h0Z" fill="#1e222a"/>
    <path d="M264.62,224.86c3.06,1.17,7.35.63,10.79.63.35,1.92-.97,1.22-2.19,1.27-8.82.35-17.73-.19-26.36-.63,4.64-1.31,10.09-.45,14.97-.61.83-.03,1.45-.66,1.53-.66.42,0,.85,0,1.27,0h0Z" fill="#49230f"/>
    <path d="M263.35,224.86c-.08,0-.7.63-1.53.66-4.87.16-10.32-.71-14.97.61-3.44-.18-5.98-.16-9.52,0l-3.81-1.27h29.83Z" fill="#1e222a"/>
    <path d="M150.4,224.23h1.27c9.3,0,18.62,0,27.92,0,7.71,0,15.45-.09,23.17,0,1.07,0,2.82-.4,3.48.64-23.58.03-46.96-.16-70.44,0-1.09-.15-2.98.51-3.17-.63,5.91,0,11.86,0,17.77,0Z" fill="#d7a15c"/>
    <path d="M128.71,226.24c.09.06.49,1.38.74,1.79-2.92-.52-5.83.57-8.54.67-7.07.25-13.65-1.33-20.65-1.3-.15-1.11,1.44-.6,2.21-.63,3.6-.15,7.23.16,10.82.03,2.6-.1,13.93-1.55,15.41-.55h0Z" fill="#5d2c10"/>
    <path d="M66,226.13c-11.3.1-22.66.13-33.96,0-1.07,0-2.82.4-3.48-.64,11.31.17,22.64-.13,33.96,0,1.07,0,2.82-.4,3.48.64Z" fill="#5d2c10"/>
    <path d="M217.03,224.23h5.07c3.44,0,7.73-.54,10.79.63-8.24,0-16.51,0-24.75,0,.07-.3.34-.59.63-.63,2.31-.33,5.75,0,8.25,0h0Z" fill="#d7a15c"/>
    <rect x="157.38" y="226.13" width="23.48" height=".63" fill="#5d2c10"/>
    <path d="M98.36,224.86h2.53v.63h-17.77c.07-.3.34-.59.63-.63,3.95-.57,10.31,0,14.6,0h.01Z" fill="#e8cc7d"/>
    <rect x="191.01" y="226.13" width="15.86" height=".63" fill="#5d2c10"/>
    <path d="M115.49,225.5c-4.86.03-9.74,0-14.6,0v-.63c4.71,0,10.1-.53,14.6.63Z" fill="#d7a15c"/>
    <path d="M71.07,225.5c-.17.62-.73.59-1.27.63.17-.62.73-.59,1.27-.63Z" fill="#5d2c10"/>
    <path d="M458.17,199.52c1.2.6,1.03,3.53,1.28,3.81.21.24,5.36-.52,6.33,0-.87,1.44-3.77.21-5.29.72-.88.3-1.32,1.63-1.68,2.44h8.88v.63h-8.88c.02,6.81,3.15-.48,5.56,2.06,1.61,1.69-.2,3.21,5.22,2.38.09,1.03-.38,1.69.63,2.53,1.78,1.49,3.68-.06,5.08,0,.09,0,.73.63,1.54.66,9.41.32,18.92-.08,28.28-.03.74-1.32-2.73-1.85-3.17-1.9-.74-2.78,2.3-2.31,2.51-2.57,1.15-1.38-2.01-2.92-3.15-3.13l.63-1.27c.42-.02.85,0,1.27,0,3.41,1.06,8.6,1.06,12.06,0,1.98-.08,3.52-.51,5.08-.63.31.83,1.21.6,1.9.63,5.38,1.96,11.46,1.2,17.13,1.27v.63c-.75.03-2.66-.48-2.54.63,3.91-.64,7.78,2.01,11.27,3.01,1.27.36,3.65-.43,3.96.79l-8.51-.57-9.89,1.85h10.79v.63h-18.4v.63h21.58c.14,1.12-1.43.6-2.21.63-4.97.21-10.17.34-15.13.39-1.99.02-4.31-1.1-6.36-.99-6.15.33-13.04,1.96-19.11,2.53-7.05.65-14.23.56-21.28,1.25-.15,1.11,1.44.6,2.21.63,8.87.36,17.82-.38,26.69-.03,6.54.26,13.15,1.38,19.65,1.92,2.2.18,4.46-.12,6.65,0l-8.27,1.56-4.42,2.24c-17.15,0-34.32.2-51.4,0l-1.57-1.92-19.37,1.29c-5.91-.07-11.85.05-17.77,0-.4-2.26,2.91-.6,3.8-2.86.59-1.5-1.52-.43-1.26-1.57,2.42.7,2.43-2.54,3.17-4.44h-11.74c-.36,0-1.37,2.49-3.48,0,.36,2.31-2.01,1.44-.64,3.8l-6.97.64c-.04-2.75,3.34-2.64,4.44-4.43l-4.44-.63c1.21.57,2.64-.58,3.17-.64,3.09-.33,6.93.05,10.15,0h1.27c1.9-.04,3.81.02,5.71,0h1.26c1.1-.04,2.95.84,4.44-.63,1.75-1.73-.47-6.32,1.27-8.24,1.74,2.95,5.08,6.11,6.99,9.15,1.08.68,3.53.51,4.44-.28,1.28-1.11.49-11.89.63-14.57h0ZM447.38,219.79c.75-3.49-4.22-3.15-5.07-.94-.68,1.77,4.35.65,5.07.94Z" fill="#cc8d41"/>
    <path d="M474.67,224.86c17.09.2,34.25,0,51.4,0,4.54,0,9.11-.07,13.65,0,1.07,0,2.82-.41,3.48.64-25.91.75-52.15.17-78.05,0v-1.27c3.32.02,6.24.59,9.52.63h0Z" fill="#d7a15c"/>
    <path d="M543.2,218.53c.15,1.11-1.44.6-2.21.63-11.12.46-22.27-.27-33.33-.95,11.86-.97,23.73.07,35.54.32h0Z" fill="#cc8d41"/>
    <path d="M542.57,207.12h12.06c-.11,0-.69.63-1.53.66-4.55.15-9.15-.19-13.7-.03v-.63c1.06,0,2.12,0,3.17,0h0Z" fill="#d7a15c"/>
    <path d="M555.26,207.12c1.36-.15,3.6-.52,3.17,1.27-1.62-.28-3.64.88-3.17-1.27Z" fill="#49230f"/>
    <path d="M376.95,224.23c16.68,0,33.47-.37,50.13,0,1.06.02,2.12-.04,3.17,0,1.23.05,2.65-.15,3.81,0,1.05.14,1.79.62,1.9.63-7.09.04-14.19-.04-21.28-.03-21.64.03-43.81.04-65.65.03h-7.62c.66-1.05,2.41-.63,3.48-.64,10.68-.13,21.38,0,32.06,0h0Z" fill="#d7a15c"/>
    <rect x="411.21" y="226.13" width="19.04" height=".63" fill="#5d2c10"/>
    <path d="M27.29,225.5h1.27c.66,1.05,2.41.63,3.48.64,11.3.12,22.66.09,33.96,0,1.26,0,2.56.1,3.81,0,.54-.04,1.1-.02,1.27-.63,1.65-.12,3.41,0,5.08,0,2.32-.02,4.66,0,6.98,0h17.77c4.86,0,9.74.03,14.6,0,6.73-.04,13.82-.59,20.31-.63,23.48-.16,46.86.03,70.44,0h1.9c8.24,0,16.51,0,24.75,0h.63l3.81,1.27c-11.89.55-23.89,1.47-35.85,1.91l-11.11,1.26h-1.9c.08-2.23.39-1.74-1.55-1.9-8.15-.67-19.28,2.54-28.63,1.32-1.22-.16-1.25-1.89-5.62-1.26-7.29,1.04-14.79,1.64-22.23,1.87-15.63.49-31.35.22-46.98.61v-1.28l5.39.64-1.9-1.27,1.26-1.25H24.77c1.54.23,4.89.6,5.71,1.89-1.24-.23-6.02.29-5.71-1.89-2.83-.44-6.61-1.22-9.21,0-.55-.63.94-1.28.96-1.89,3.6.58,7.15.56,10.79.63l-.02-.02ZM128.71,226.24c-1.48-1-12.81.46-15.41.55-3.59.13-7.22-.17-10.82-.03-.77.03-2.36-.48-2.21.63,7-.03,13.57,1.55,20.65,1.3,2.71-.1,5.62-1.19,8.54-.67-.25-.41-.65-1.72-.74-1.79h0ZM180.86,226.13h-23.48v.63h23.48v-.63ZM206.88,226.13h-15.86v.63h15.86v-.63Z" fill="#49230f"/>
    <path d="M551.46,196.98c.55,1.11,2.21.49,3.17.63l-20.94,1.27c-.83.1-.75.15-1.27.63-.34.32-.97.11-.63,1.26,6.02.06,11.26-.71,17.27.18.64.09,2.53.18,2.39,1.08-2.24-.26-1.82,1.58-4.16,1.86-1.43.17-3.17.33-4.41-.57l.33,1.88c-4.9-.08-9.7.53-14.6.64.13-.36.66-1.01.63-1.27-.04-.34-.5-.47-.63-.63-2.86-3.48-12.01,1.38-12.07-3.48-.02-1.5.4-.87,1.57-.96,1.68-.13,3.41.06,5.11,0,.92-.03,1.94-.69,2.5-.67.32,0,.44,2.44,1.62,1.3.17-.16.79-3.68,1.28-4.44,7.74-.16,15.31,1.11,22.85,1.27v.02Z" fill="#cc8d41"/>
    <path d="M566.05,189.38c.11,1.9-.44,3.4-1.27,5.07-.15-1.84.85-3.63-1.28-4.12,3.35-1.24-.57-1.07.01-3.48,1.14.61,1.35,1.67,2.53,2.53h.01Z" fill="#d7a15c"/>
    <rect x="27.29" y="192.56" width="3.17" height=".62" fill="#cc8d41"/>
    <path d="M544.79,227.4l4.12,1.26c-1.57.27-3.9-.37-5.29,0-.68.18-.35,1.28-.42,1.28h-9.52l3.17-1.26c-4.36-.07-8.65-.48-13.01-.64-.78-.03-2.36.48-2.21-.63h23.16Z" fill="#49230f"/>
    <path d="M558.44,205.22c-.01.06.67.72,0,1.27-.41-.13-1.8-.62-1.9-.63l1.9-.63h0Z" fill="#49230f"/>
    <path d="M164.99,195.08c-.09,1.65,1.39,2.73,1.9,3.8.33.69.95,4.4,2.21,3.8.82-.39,2.26-3.44,2.86-4.43.39-.64.4-1.49.63-1.9,1.36-2.36,3.91-.92,6.35-1.27.11,3.15-.15,6.36,0,9.5.14,2.9,1.19,6.31.64,9.51-1.48.03-2.97-.04-4.45,0-.1-1.71-.45-3.36-.63-5.07-.13-1.15.61-5.21-1.28-3.5-.75.67-1.35,2.5-1.89,3.5-5.16,4.21-4.75-3.17-7.61-5.7v10.77c-1.08.37-3.73-.26-5.09,0l.63-19.01c1.9-.05,3.82.07,5.71,0h.02Z" fill="#1e222a"/>
    <path d="M245.59,195.08l3.82,8.23c2.23-.72,2.55-5.44,3.17-6.33.04-.05.84.16,1.09-.2.36-.52-.08-1.56.55-1.74,1.22-.35,3.86.33,5.35.04.11,2.09-.16,4.25,0,6.34.31,4.2.71,8.5,1.27,12.67-1.54.23-3.47-.16-5.08,0l-.64-10.77c-2.84,1.53-2.83,11.2-6.97,6.34-.04-.22-1.72-3.88-1.85-4.06-.53-.75-1.24-.29-1.96-.38.04,2.32-.07,4.66,0,6.97-.77,2.95-2.6,1.74-5.08,1.9l1.3-18.98c1.65.02,3.41-.19,5.05-.03h-.02Z" fill="#1e222a"/>
    <path d="M403.6,208.39c-3.97,5.05-5.36-.25-7.29-3.8-2.7,4.27,1.87,11.13-6.03,9.5.46-2.65.45-18.15,1.3-18.98.18-.17,4.55-.17,4.94.07s3.32,6.99,3.92,8.13c1.99-1.02,3.69-7.1,5.06-7.93.69-.41,3.99-.57,4.38-.23.94.79.58,7.17.7,8.8.26,3.37,1.02,6.69.63,10.14-.56.18-3.61.09-4.44,0l-.64-9.5c-1.52-.25-2.06,1.43-2.54,2.53-.13.29.12.93,0,1.27h.01Z" fill="#1e222a"/>
    <path d="M440.4,195.08c6.19-1.41,7.95,5.68,11.11,9.51,1.45.24.86-.64.95-1.58.22-2.58-.16-5.34,0-7.93,1.37.26,3.99-.37,5.08,0v19.01c-.9.79-3.35.96-4.44.28-1.91-3.04-5.25-6.19-6.99-9.15-.29-.49.71-1.67-1.27-1.26v9.5c-1.49,1.48-3.34.59-4.45.63v-19.01h.01Z" fill="#1e222a"/>
    <path d="M293.18,195.08c5.08.34,14.27-1.87,15.74,4.92,1.1,5.09-3.64,6.94-3.65,7.43s4.71,5.53,4.4,7.29c-1.47,0-3.36.22-5.08,0-1.42-1.53-3.12-6.02-4.75-6.34-3.41-.68-.28,4.7-2.2,6.08-.4.29-4.31-.21-4.47-.37-.68-.67.51-16.52,0-19.01h.01ZM298.25,203.96c2.02.6,6.75-.32,5.43-3.16-.65-1.4-5.22-.84-5.43-.64-.19.18.12,3.02,0,3.81h0Z" fill="#1e222a"/>
    <path d="M136.44,195.08c4.19-1.23,10.96-.31,13.33,3.8,1.39,2.4,1.39,5.53,1.27,8.24-.28,0-1.32,2.77-1.9,3.5-4.25,5.34-10.15,5.43-15.46,1.45-3.87-2.9-3.28-8.19-2.31-12.55l3.17-3.17c.4-.22.85-.48,1.27-.63l.63-.63h0ZM144.05,208.39c2.83-2.45,2.58-3.82.63-6.97-.12-.19.37-.63-.46-1.26-6.55-4.99-12.92,5.92-6.05,9.34,2.75,1.37,3.88.61,5.88-1.12h0Z" fill="#1e222a"/>
    <path d="M320.47,212.82c-.36-.24-2.81-3.2-3.17-3.8-.76-2.91-.77-5.32,0-8.24.28-.05,2.09-3.31,3.59-4.33,8.8-5.96,20.36,2.67,15.36,12.8-2.75,5.58-10.74,6.91-15.79,3.56h.01ZM323.18,200.34c-4.31,3.45,1.16,13.7,7.48,8.41,5.17-4.33-1.46-13.22-7.48-8.41Z" fill="#1e222a"/>
    <path d="M105.98,202.05c.01-2.33-.49-4.62.05-6.92l4.4-.05c.02.63-.02,1.27,0,1.9.05,1.68-.04,3.39,0,5.07,1.8-.36,5.55.49,6.98,0,.19-.07.51.1.63-.32.02-1.58,0-3.17,0-4.75v-1.9c.75-.11,3.93-.16,4.44,0v19.01c-1.02.89-4.04.9-5.08,0v-7.61c-3.11.36-6.78-1.36-6.98,2.54-.22,4.09,1.29,6.37-4.44,5.71-.02-2.53.04-5.08,0-7.61-.02-1.69,0-3.38,0-5.07h0Z" fill="#1e222a"/>
    <path d="M432.15,195.72c-.16.55-.06,2.42,0,3.17l-7.62.63v3.17h6.35c2.04,6.86-6.02,3.43-6.34,3.8-.11.12.05,2.45-.64,3.17,1.33.52,7.96.34,8.25.64.2.21-.14,3.03,0,3.8-3.23.05-7.06-.33-10.15,0-.72-.14-1.98.2-2.54,0-.04-2.32.05-4.65,0-6.97v-3.16c.03-1.89-.08-3.81,0-5.7.03-.63-.04-1.27,0-1.9.02-.42-.04-.85,0-1.27,4.07.38,8.85-.81,12.7.63h-.01Z" fill="#1e222a"/>
    <path d="M347.12,207.76c-.19-.49.05-1.68-.27-2.55-.49-1.31-3.97-9.73-3.53-10.12,1.25.24,4.09-.43,4.97.1.95.58,3.63,11.75,4.24,11.93,1.15.35,1.55-1.77,1.87-2.56.6-1.5,2.58-9.09,2.95-9.42.5-.43,4.52.16,5.65-.06l-7.04,18.94c-7.14.84-5.99-.52-7.92-5.58-.16-.41-.86-.59-.9-.7l-.02.02Z" fill="#1e222a"/>
    <path d="M382.66,195.72c1.02,5.76-4.49,3.36-8.25,3.8.12,1.04-.5,2.78.64,3.17s6.01-.35,6.35,0v3.81h-6.98v3.81h8.25v3.81c-3.33-.59-9.37.78-12.29,0-.65-.17-.35-1.24-.41-1.28v-3.8c0-4.72-.65-9.3,0-13.93,2.63.45,11.16-.91,12.69.63v-.02Z" fill="#1e222a"/>
    <path d="M188.47,201.42c.04-2.11-.03-4.23,0-6.34h12.7c-.11,1.22.15,2.62,0,3.8-.03.23.06.49,0,.63-2.06-.81-10.82-1.67-7.97,2.58.49.73,1.54.51,2.26.59,1.27.13,3.15.1,4.44,0v3.17c-.05,0-.23.51-.63.63h-6.35c-1.02,5.76,4.49,3.37,8.26,3.8v3.8h-12.7c-.03-2.74.04-5.5,0-8.24v-1.9c0-.84-.02-1.69,0-2.53h0Z" fill="#1e222a"/>
    <path d="M281.12,208.39c-1.26.37-4.12-.04-5.71.63,0-1.18,1.26-3.57-1.06-4.34-5.2-1.75-3.83,7.72-1.79,8.14,1.86.39.84-3.1,2.85-2.53-.12,1.24.09,2.56,0,3.81h-5.08v-19.01c4.18.42,10.35-1.33,13.59,1.95s1.5,10.1-2.8,11.35h0ZM276.05,204.59c.7.04,1.39.02,2.08-.14,6.88-1.59-3.31-10.34-2.08.14Z" fill="#1e222a"/>
    <path d="M469.6,199.52c-.87-.28-4.16.29-4.45,0l.37-4.45h14.87c-.23,1.23.32,3.47,0,4.45h-5.08v14.57c-1.4-.06-3.3,1.49-5.08,0-.41-4.3.55-9.48.02-13.65-.08-.64,0-.71-.65-.92h0Z" fill="#1e222a"/>
    <path d="M149.76,198.89c1.94,1.85,1.4-2.22,1.32-2.9-.1-.96-2.45-1.32-1.33-2.17.59-.44,2.75,1.17,2.96-1.68.15-2.08-1.2-2.88,3.42-2.47,8.81.78,3.41,4.42-.65,7.33-.6.78,2.39,3.11,2.5,3.61.45,2.04-.25,4.96.03,7.14-3.24.13-6.06-.56-5.72-4.43l-.63,4.43c-.72.11-.58-.63-.63-.63.12-2.71.12-5.83-1.27-8.24h0Z" fill="#d7a15c"/>
    <path d="M528.61,203.95c.14.17.6.29.63.63-2.93.71-5.94.4-8.88.63-1.55.12-3.09.56-5.08.63-4,.16-8.05-.12-12.06,0-.42,0-.85-.02-1.27,0-3.69.14-7.56,1.14-11.42.63-1.71-2.15-.73-4.75,2.21-4.44l35.86,1.9v.02Z" fill="#1e222a"/>
    <path d="M432.15,195.72c.02-.08.79-.26.93-.67.66-2.03.09-5.01,3.06-3.11.42.27.42,1.26.85,1.29,1.61.12,2.36-2.09,2.78,1.86.19,1.78-.05,3.86,0,5.7-3.25,2.01-3.79,6.73-1.27,9.5-3.89.47-2.45-.17-3.39-1.67-.22-.36-1.02-.19-1.05-.23-.3-.41,1.5-1.4,1.25-1.87-.09-.17-2.45-1.05-3.01-2.36-.14-.33-.82-3.44-.81-3.63.04-.41,1.31-.3,1.34-.74.03-.46-.68-.8-.69-.89-.06-.75-.16-2.62,0-3.17h.01Z" fill="#d7a15c"/>
    <path d="M228.45,195.08c.39,5.57-.82,11.73.63,17.11v1.9c-.38.12-4.7.12-5.08,0,0-3.37.02-6.77,0-10.14,0-1.29-.41-8.44,0-8.87.15-.16,3.74-.09,4.44,0h0Z" fill="#1e222a"/>
    <path d="M401.06,215.99c-.04,1.95.92,1.58,2.21,1.91,1.36.35,3.33.89,4.59,1.12,3.11.57,2.97-1.96,3.35,3.93-5.33-.04-10.54.6-15.86.63.88-3.23-.3-4.4,3.8-3.81l-3.17-.63.63-3.16c1.46.08,2.98.02,4.44,0h.01Z" fill="#cc8d41"/>
    <path d="M171.34,209.02c-1.07,1.99-.58,2.19-3.8,1.91-.19,1.03,1.63.73,2.25.67,1.83-.18,4.29-.55,4.72-2.58.19,1.7.54,3.36.63,5.07-.35,0-.97.79-2.05.52-1.16-.29-2.21-2.1-3.92-1.83-.36.06-.14,2.76-3.52.32-.52-.38-.41-1.39-.98-1.56-.78.03.27,2.11-.95,2.54v-10.77c2.87,2.53,2.45,9.91,7.62,5.7h0Z" fill="#d7a15c"/>
    <path d="M199.89,205.85c5.24-1.44,8.96.58,13.97-.63l-.64,1.26,7.61.65c.15,1.1-1.44.6-2.21.63-5.88.23-11.58-1.03-17.46-.63v1.9h10.79c-.07.9-2.86,1.12-3.57,1.19-5.44.52-8.87-1.78-14.2-1.19v-1.9c2.09.31,3.34-.09,5.08-.64.4-.13.58-.62.63-.63h0Z" fill="#c48136"/>
    <path d="M245.59,195.08c.57.06,1.57.99,2.54.63-.91-4.86,2.01-2.82,5.71-3.16.19.14-2.89,3.49-1.27,4.43-.61.89-.93,5.61-3.17,6.33l-3.82-8.23h.01Z" fill="#d7a15c"/>
    <path d="M475.94,209.66c1.29,3.37-.4,4.23,4.22,4.4,6.75.24,15.39-1.95,21.8-1.23.44.05,3.91.58,3.17,1.9-9.36-.06-18.88.35-28.28.03-.81-.03-1.45-.65-1.54-.66.75.96.61-3.73.63-4.43h0Z" fill="#c48136"/>
    <path d="M395.35,223.59c5.33-.04,10.53-.67,15.86-.63.08,0,.72.65,1.54.66,4.65.08,9.91-.64,14.33.61-16.66-.37-33.46,0-50.13,0-.36-1.88.98-1.26,2.2-1.28,5.17-.07,10.74.68,16.2.64Z" fill="#c48136"/>
    <path d="M188.47,203.95c-2.76-.19-8.06,1.29-8.27-2.84-.02-.5,1.4-.49,1.97-1.24,1.61-2.1-.26-2.87,5.03-2.26.17.15-1.53,4.21,1.27,3.8-.02.84,0,1.69,0,2.53h0Z" fill="#d7a15c"/>
    <path d="M244.32,212.19c-.07-2.31.04-4.66,0-6.97.71.09,1.43-.37,1.96.38.13.18,1.81,3.84,1.85,4.06,0,.07-.97.89-.64,1.26,1.65,1.8,2.5-1.92,2.54,5.08h-1.27v-1.9c-3.23-.37-4.35,1.42-4.44-1.9h0Z" fill="#d7a15c"/>
    <path d="M201.16,198.89c3.11-1.02,7.17-.77,10.48-.63.78.03,2.36-.48,2.21.63h-9.52c-.08,0,.21,1.05-.21,1.66-1.24,1.81-2.25,1.99-4.23,2.14-1.29.1-3.18.13-4.44,0l-1.27-2.53c1.55-.32,6.36.72,6.98-.64.06-.14-.03-.41,0-.63h0Z" fill="#cc8d41"/>
    <path d="M275.41,209.02c0,.42.04.86,0,1.27-2.01-.57-.99,2.92-2.85,2.53-2.04-.43-3.41-9.89,1.79-8.14,2.32.78,1.06,3.16,1.06,4.34Z" fill="#081e33"/>
    <path d="M118.03,195.72v1.27l-.64,3.16c-1.08.29-.31-1.18-.95-1.29-3.19-.57-2.24,2.97.95,3.2-1.44.49-5.19-.36-6.98,0-.03-1.68.05-3.39,0-5.07,1.04.09,6.06.92,6.33.63.25-.27-.48-1.96.65-2.53l.63.63h.01Z" fill="#d7a15c"/>
    <path d="M419.46,198.25c-3.34.55-9,.76-7.62-3.8,1.62.65,4.32-.71,5.35-.64.88.07.25,3.12,2.27,2.54-.04.63.03,1.27,0,1.9h0Z" fill="#d7a15c"/>
    <path d="M343.31,218.53c-.28.95-3.28,1.19-4.13,1.26-3.14.24-6.39-.18-9.54.04l-12.98-1.3h26.65Z" fill="#cc8d41"/>
    <path d="M320.47,212.82c.41.2,1.6,2.28,3.17,1.91.46.37-1.22,1.26-1.58,1.26h-15.86c-.47,0-1.86-1.03-2.85-.64v-.62h1.27c1.72.22,3.6,0,5.08,0,2.99-.02,6.11.58,9.17.04.73-.13.13-1.56.39-1.89.35-.07,1-.17,1.23-.05h-.02Z" fill="#cc8d41"/>
    <path d="M337.6,224.23l.63.63c-8.87,0-17.78-.03-26.65,0,3.53-1.27,8-.51,11.79-.61.82-.02,1.45-.66,1.54-.66,4.3-.06,8.43.48,12.69.63h0Z" fill="#d7a15c"/>
    <path d="M172.61,196.35c-.24.41-.25,1.27-.63,1.9-.99-1.08-1.78.59-2.75.53-1.39-.08-2.59-2.53-2.33.1-.51-1.07-1.99-2.15-1.9-3.8,3.29-.11,4.36-.89,7.62,1.27h0Z" fill="#d7a15c"/>
    <path d="M260.82,203.32c.32,1.26.5,3.66.63,3.81.23.26,5.85-.2,6.98,0,.27,1.63-.23,1.15-1.37,1.45-1.7.45-5.82.07-4.97,2.66l3.16,1.58c-1.33-.1-2.55.38-3.8.64l-.63-10.14h0Z" fill="#cc8d41"/>
    <path d="M188.47,205.22v.63c-.82.17-4.82,1.77-4.98,2.01-.4.63.1,2.21-.11,2.42-.09.09-2.44.09-2.53,0-.22-.21.16-3.82,0-4.71l7.63-.36h0Z" fill="#d7a15c"/>
    <path d="M292.55,209.66l-6.35-.32c3.39-.86,1.92-1.69,2.75-3.29.44-.85,2.63-1.87,3.6-2.1,0,1.9-.02,3.81,0,5.7h0Z" fill="#cc8d41"/>
    <path d="M410.58,203.95c1.5.14,5.03-.61,5.71.96,1.12,2.62-2.61,1.18-3.8,1.58s-.58,3.64-.63,5.07c-.04.99.39,2.2-.63,2.53.39-3.45-.37-6.76-.63-10.14h-.02Z" fill="#d7a15c"/>
    <path d="M324.91,223.59c5.62-1.4,11.44-1.55,17.13-.63l-4.44,1.26c-4.27-.15-8.4-.7-12.69-.63h0Z" fill="#c48136"/>
    <path d="M104.07,200.79c.54.41.59.86,1.05,1.26h.85c0,1.7-.02,3.4,0,5.08-.27-.11-.57-.36-.63-.63-.1-.42.37-1.13-.37-1.3-1.11-.25-4.54-.04-5.97.03,1.26-2.47,4.87-1.99,5.08-4.43h-.01Z" fill="#d7a15c"/>
    <path d="M86.3,201.42c1.27-.04,2.54.04,3.81,0v.63c-2.41-.49-8.56-.08-11.42,0-1.39.15-3.54-.57-4.44.63-3.15.11-6.37-.17-9.52,0l-2.54-.63c8.03-.19,16.09-.36,24.11-.64h0Z" fill="#d7a15c"/>
    <path d="M179.59,224.23c-9.3,0-18.62,0-27.92,0h27.92Z" fill="#cc8d41"/>
    <path d="M178.95,195.08c2.43-.35,5.17-3.31,5.72.94.02.81-4.77,0-5.09.32-.54.54.88,7-.63,8.24-.15-3.15.11-6.35,0-9.5h0Z" fill="#d7a15c"/>
    <path d="M457.54,195.08c.63.21.48,1.4.81,1.69.62.56,1.83.22,2.36,1.16-1.88.89-2.41-.7-2.54,1.58-.15,2.68.64,13.46-.63,14.57v-19.01h0Z" fill="#d7a15c"/>
    <path d="M86.3,201.42l-.95-1.27c5.68.47,12.23-.61,17.79-.03,1.21.12.85.61.93.67-.84,0-1.69.02-2.54,0h-.63c-3.67-.11-7.41.53-10.79.63-1.27.04-2.54-.04-3.81,0Z" fill="#c48136"/>
    <path d="M405.5,212.19h-3.17c-.31-1.54.85-2.58,1.27-3.8.12-.34-.13-.98,0-1.27l1.9-1.27c.11,2.1-.13,4.24,0,6.34h0Z" fill="#cc8d41"/>
    <path d="M475.94,205.22c1.38-.48,13.33-.35,13.33.32l-13.33.95c0-.42-.01-.85,0-1.27Z" fill="#c48136"/>
    <path d="M99,205.22c1.43-.08,4.87-.29,5.97-.03.74.17.27.88.37,1.3-4.64.12-9.33-.16-13.96,0,.07-.3.35-.61.63-.63,2.12-.21,5.09-.53,6.98-.63h0Z" fill="#c48136"/>
    <path d="M270.33,214.09c-1.05-.66-.63-2.4-.65-3.48-.05-5.01-.47-10.74.65-15.53v19.01Z" fill="#d7a15c"/>
    <path d="M293.18,214.09c-1.1-.86-.62-3.05-.63-4.43-.02-1.9,0-3.81,0-5.7,0-2.8-.54-6.48.63-8.87.51,2.49-.68,18.34,0,19.01h0Z" fill="#d7a15c"/>
    <path d="M440.4,214.09h-.63c-.08-4.42.11-8.88,0-13.3-.05-1.85.19-3.93,0-5.7h.63v19.01h0Z" fill="#fefefe"/>
    <path d="M353.47,194.45c.26.25-.71,1.62-.59,2.18.21.98,2.03.55,1.85,1.61l-2.53.64c.45-4.23-.82-1.45-1.92-2.17-.7-.46-.86-2.61-.62-2.89.13-.15,3.67.5,3.81.63Z" fill="#d7a15c"/>
    <path d="M480.38,199.52c-.46,1.39-4.06.24-4.45.63-.18.18.03,4.09,0,5.07-.01.42,0,.85,0,1.27-.02,1.05.03,2.11,0,3.17-.02.7.12,5.39-.63,4.43v-14.58h5.08Z" fill="#d7a15c"/>
    <path d="M229.09,214.09v-19.01c.89.42.59.76.66,1.55.35,3.86.46,12.82,0,16.54-.08.64,0,.71-.65.92h0Z" fill="#d7a15c"/>
    <path d="M259.55,201.42c2.01-.37,1,.84,1.27,1.9l.63,10.14c-.17.03-.44.6-.63.63-.56-4.18-.96-8.47-1.27-12.67Z" fill="#d7a15c"/>
    <path d="M150.4,224.23c-5.91,0-11.86,0-17.77,0,4.36-1.12,9.7-.69,14.29-.64,1.07,0,2.82-.4,3.48.64h0Z" fill="#cc8d41"/>
    <path d="M369.96,209.02v3.8c-.1-.08-1.83.89-2.53.63.22-2.85-1.31-5.14,2.53-4.43h0Z" fill="#cc8d41"/>
    <path d="M229.09,212.19c-1.45-5.38-.24-11.54-.63-17.11.23.03.5-.06.63,0v17.11Z" fill="#5d2c10"/>
    <path d="M463.25,187.49l-5.31.55c-1.05-.66-4.06.26-3.56-1.82l8.88,1.27h-.01Z" fill="#cc8d41"/>
    <path d="M291.28,219.16l-5.36,1.3c-1.34-.38-4.67,1.03-4.16-1.3h9.52Z" fill="#cc8d41"/>
    <path d="M401.06,188.11c.14,1.11-1.44.61-2.21.64-1.67.06-3.39-.16-5.05.03s-4.72,3.16-4.16-.67h11.42,0Z" fill="#cc8d41"/>
    <path d="M470.23,214.09c-1.01-.85-.55-1.51-.63-2.53-.33-3.87.24-8.12,0-12.04.64.21.57.28.65.92.53,4.17-.42,9.35-.02,13.65Z" fill="#d7a15c"/>
    <path d="M403.6,207.12c.48-1.1,1.01-2.78,2.54-2.53l.64,9.5c-.41-.05-.85.05-1.27,0-.05-.63.04-1.27,0-1.9-.13-2.09.1-4.24,0-6.34l-1.9,1.27h-.01Z" fill="#d7a15c"/>
    <path d="M98.36,224.86c-4.29,0-10.65-.57-14.6,0,4.32-1.06,10.28-1.06,14.6,0Z" fill="#c48136"/>
    <path d="M501.96,205.85l-.63,1.27c-.38-.07-.85.04-1.27,0-2.42-.24-5.15.17-7.62,0-.65-.19-1.18.27-1.9-.63,3.86.51,7.73-.5,11.42-.63h0Z" fill="#d7a15c"/>
    <path d="M110.42,209.02c.21-3.89,3.87-2.17,6.98-2.54v7.61c-1.4-1.21-.32-5.11-.63-6.97-2.58.03-4.93-.76-6.35,1.9Z" fill="#d7a15c"/>
    <path d="M380.75,200.15c-.07.05.29,1.12-.41,1.29-1.49.36-3.73-.59-5.3.61v-1.9h5.71Z" fill="#cc8d41"/>
    <rect x="66.63" y="188.75" width="11.42" height=".63" fill="#c48136"/>
    <path d="M63.46,188.75c.75.03,2.66-.48,2.54.63h-11.42c3.1-.8,5.61-.74,8.88-.63Z" fill="#c48136"/>
    <path d="M262.72,215.99l-6.98.64c-.29-1.9.43-1.07,1.59-1.24,1.4-.21,4.94-1.09,5.39.61h0Z" fill="#cc8d41"/>
    <path d="M396.62,215.99c-.71-.04-2.07.44-1.9-.63h9.83c.86,1.13-3.11.62-3.49.63-1.47.02-2.98.08-4.44,0Z" fill="#c48136"/>
    <path d="M224.01,214.09c-1.04-.33-.7-6.42-.67-7.96.02-.72-.18-1.91.67-2.18.02,3.37,0,6.77,0,10.14Z" fill="#e8cc7d"/>
    <path d="M380.75,200.15h-5.72v2.53c-1.14-.39-.52-2.13-.64-3.17,3.77-.44,9.27,1.96,8.25-3.8,2.61,2.62-.78,3.59-1.9,4.43h.01Z" fill="#d7a15c"/>
    <rect x="306.51" y="190.65" width="9.52" height=".63" fill="#c48136"/>
    <rect x="344.58" y="191.28" width="8.88" height=".63" fill="#c48136"/>
    <path d="M217.66,224.23c-.98-1.88,5.17-2.1,4.44,0h-4.44Z" fill="#c48136"/>
    <path d="M217.03,224.23c-2.5,0-5.94-.33-8.25,0,1.91-1.06,6.21-1.08,8.25,0Z" fill="#c48136"/>
    <path d="M317.29,200.79c-.77,2.91-.76,5.32,0,8.24-1.12-1.87-2.14-7.58-.63-8.87.43-.37.58.64.63.63h0Z" fill="#d7a15c"/>
    <path d="M412.48,206.49c.01,1.86,1.96,5.56-.63,5.07.05-1.42-.5-4.69.63-5.07Z" fill="#c48136"/>
    <path d="M500.06,207.12c-2.16,1.38-5.28.69-7.62,0,2.47.17,5.19-.24,7.62,0Z" fill="#cc8d41"/>
    <path d="M368.69,195.09v2.53c-1.35-.35-1.93-1.03-2.53-2.22l2.53-.31Z" fill="#d7a15c"/>
    <path d="M393.44,215.36c.15,1.11-1.44.59-2.21.63-1.58.07-3.19-.04-4.76,0-.15-1.11,1.44-.59,2.21-.63,1.58-.07,3.19.04,4.76,0Z" fill="#c48136"/>
    <path d="M419.46,214.09c-1.01-.37-1.07-5.84,0-6.97.05,2.32-.04,4.65,0,6.97Z" fill="#d7a15c"/>
    <path d="M248.76,215.99h1.27s1.24.43.32.64h-6.02c.35-1.19,3.39-.64,4.44-.64h0Z" fill="#cc8d41"/>
    <path d="M365.52,191.92v2.53c-2.57-.58-3.02-3.06,0-2.53Z" fill="#d7a15c"/>
    <path d="M310.31,224.86h-6.35c1.28-1.05,4.94-1.08,6.35,0Z" fill="#d7a15c"/>
    <path d="M281.12,208.39c1.08-.15,2.28.11,2.54,1.26h-3.8v-.62c.57.17,1.08-.61,1.26-.64h0Z" fill="#cc8d41"/>
    <path d="M298.25,219.17c-.56,1.44-3.82.27-5.07.62.56-1.44,3.82-.27,5.07-.62Z" fill="#cc8d41"/>
    <rect x="476.58" y="188.75" width="4.44" height=".62" fill="#cc8d41"/>
    <path d="M134.53,196.35l-3.17,3.17c.69-3.11.49-1.72,3.17-3.17Z" fill="#d7a15c"/>
    <path d="M434.06,224.23c-1.15-.15-2.58.05-3.81,0,.64-1.04,3.21-1.02,3.81,0Z" fill="#cc8d41"/>
    <path d="M346.48,207.12h-1.26v-2.53c.35-.77,1.61,2.18,1.26,2.53Z" fill="#cc8d41"/>
    <rect x="512.12" y="201.43" width="2.53" height=".62" fill="#cc8d41"/>
    <path d="M419.46,206.49c0-.8-.01-1.69,0-2.53v2.53Z" fill="#d7a15c"/>
    <path d="M346.48,218.53v.62c-2.64.31-2.64-.94,0-.62Z" fill="#cc8d41"/>
    <path d="M253.83,216v.62c-2.64.31-2.64-.94,0-.62Z" fill="#cc8d41"/>
    <path d="M483.55,188.75c.43.22-.37,1.08-1.26.62-.43-.22.37-1.08,1.26-.62Z" fill="#cc8d41"/>
    <path d="M217.03,198.26c.43.22-.37,1.08-1.26.62-.43-.22.37-1.08,1.26-.62Z" fill="#cc8d41"/>
    <path d="M347.12,207.76c.3.3-.59,1.01-.63.32-.01-.22.49-.46.63-.32Z" fill="#cc8d41"/>
    <path d="M365.21,195.08c.41.21.41.42,0,.63v-.63Z" fill="#d7a15c"/>
    <path d="M313.8,218.53c.41.21.41.42,0,.63v-.63Z" fill="#cc8d41"/>
    <path d="M135.8,195.72c.06-.02.24-.52.63-.63l-.63.63Z" fill="#d7a15c"/>
    <path d="M118.03,195.72l-.63-.63c.13-.07.41.03.63,0v.63Z" fill="#c48136"/>
    <path d="M100.26,224.86h-.63l.32-.62.32.62h-.01Z" fill="#c48136"/>
    <path d="M78.69,202.05c-.77.02-2.79.57-4.44.63.9-1.2,3.05-.48,4.44-.63Z" fill="#cd944e"/>
    <path d="M432.15,198.89c0,.09.72.42.69.89-.03.44-1.3.33-1.34.74-.02.19.67,3.3.81,3.63.56,1.31,2.92,2.19,3.01,2.36.25.47-1.56,1.46-1.25,1.87.03.04.82-.13,1.05.23.93,1.5-.5,2.15,3.39,1.67-2.52-2.77-1.98-7.49,1.27-9.5.11,4.42-.08,8.88,0,13.3h-.63c-.17-.76.43-3.06-.37-3.18-3.51-.54-5.16-.56-5.35,3.18h-1.27c-.14-.78.21-3.6,0-3.8-.29-.3-6.92-.11-8.25-.64.69-.72.53-3.04.64-3.17.33-.37,8.39,3.06,6.34-3.8h-6.35v-3.17l7.62-.63v.02Z" fill="#cd944e"/>
    <path d="M453.73,224.23l19.37-1.29,1.57,1.92c-3.28-.04-6.2-.61-9.52-.63-3.8-.02-7.62.04-11.42,0Z" fill="#c48136"/>
    <path d="M433.42,214.09c.19-3.73,1.83-3.72,5.35-3.18.8.12.19,2.42.37,3.18-1.9.02-3.81-.04-5.71,0h-.01Z" fill="#d7a15c"/>
    <path d="M447.38,219.79c-.72-.29-5.75.83-5.07-.94.85-2.22,5.82-2.55,5.07.94Z" fill="#cd944e"/>
    <path d="M515.29,205.85c-3.46,1.06-8.65,1.06-12.06,0,4-.12,8.06.16,12.06,0Z" fill="#d7a15c"/>
    <path d="M529.25,204.59c.03.26-.51.91-.63,1.27-2.09.04-4.26.09-6.35,0-.7-.03-1.6.19-1.9-.63,2.95-.23,5.96.07,8.88-.63h0Z" fill="#d7a15c"/>
    <path d="M444.85,213.46v-9.5c1.98-.41.98.77,1.27,1.26-1.74,1.92.48,6.5-1.27,8.24Z" fill="#e8cc7d"/>
    <path d="M550.19,206.49v.63h-7.62c1.93-1.27,5.17-.49,7.62-.63Z" fill="#49230f"/>
    <path d="M553.36,205.85c-.12,0-.7.62-1.27.63l1.27-.63Z" fill="#49230f"/>
    <path d="M533.69,198.89c3.32-.41,8.87-.14,12.38,0,.77.03,2.36-.48,2.21.63h-15.86c.52-.48.44-.52,1.27-.63h0Z" fill="#cd944e"/>
    <path d="M554.63,197.62c2.02.3,6.66.85,5.71,3.17-.7.87-1.72,3.28-1.9,4.43l-1.9.63c-.87-.14-2.22-.03-3.17,0l-1.27.63c-.63.02-1.27-.04-1.9,0-2.45.14-5.68-.63-7.62.63-1.06,0-2.12,0-3.17,0-5.67-.07-11.75.69-17.13-1.27,2.09.09,4.25.04,6.35,0,4.9-.1,9.7-.71,14.6-.64l-.33-1.88c1.24.9,2.98.74,4.41.57,2.34-.27,1.92-2.11,4.16-1.86.14-.9-1.75-.99-2.39-1.08-6.01-.89-11.25-.12-17.27-.18-.34-1.15.29-.95.63-1.26h15.86c.15-1.11-1.44-.6-2.21-.63-3.51-.14-9.06-.41-12.38,0l20.94-1.27h-.02Z" fill="#c48136"/>
    <g>
      <path d="M183.71,94.98h-67.57c-.53.47,1.27,2.52,1.66,3.09,3.7,5.45,8.25,10.44,12.08,15.81,16.24,1.18,33.96-1.23,50.02.11,13.77,1.15,22.02,9.66,20.63,23.74-1.04,10.55-10.86,18.06-21.25,18.06h-23.8v-35.16c0-.07-.88-.95-.95-.95h-23.16v45.3c0,.1-.62,1.85-1.26,1.58l-37.72-71-31.15-.59-42.19,78.56h25.05l32.37-58.92,13.01,25.34h-23.48l-8.61,16.45c-.65.64.29,1.93.68,1.93h40.93l7.62,14.88,78.99.32c55.45-2.7,53.96-77.91-1.9-78.55ZM39.34,147.47c.05,0,.1,0,.15-.01,2.29-.37,7.97-3.14,10.32-3.11,0,0,0,0,0,0-2.34-.02-8.02,2.74-10.31,3.11-.05,0-.11,0-.16.01ZM59.77,141.02c-1.1,2.01-2.94,4.11-3.92,5.91-.14.25,0,1.15-.36,1.83-4.15,7.66-8.05,15.48-12.65,22.88h-.01c4.6-7.41,8.5-15.23,12.65-22.88.36-.67.22-1.55.36-1.82,0,0,0,0,0,0,.98-1.8,2.82-3.9,3.92-5.91,1.91-3.51,14.48-28.5,16.08-28.94,0,0,0,0,0,0-1.66.58-14.16,25.43-16.06,28.93ZM129.78,111.44c-1.25-1.02-7.34-9.72-7.94-11.39v-.05s-.02-.02-.02-.02c-.2-.55-.78-2.3-.61-2.46,0,0,0,0,0,0-.19.17.46,2.06.63,2.53.6,1.67,6.69,10.37,7.94,11.39.29.24.53.5.86.6-.34-.1-.58-.36-.87-.6ZM131.03,112.09s-.07-.01-.1-.01c.04,0,.07.02.11.01h0ZM136.03,97.64c9.9-.06,19.82-.33,29.72-.36-9.9.02-19.82.29-29.72.36ZM181.83,112.06h0c9.54,1.15,18.61,7.5,19.97,17.44.09.23.22.31.41.33-.19-.01-.33-.09-.42-.33-1.36-9.94-10.42-16.28-19.97-17.44ZM60.94,154.44c.4-.41,1.02-.68,1.17-.8-.08.1-.75.38-1.17.8ZM131.34,171.62c-6.19-10.74-11.77-21.83-17.63-32.76-.42-.79-1.29-1.24-1.39-1.43h0c-5.28-.45-12.39-.37-16.98,2.35-2.11,1.24-1.17.67-3.33,1.46-.18.07-.41.58-.63.63-.14.03-.48.56-1.52.67-6.71.7-14.68-.59-21.54-.07-.26.06-2.2,3.74-2.64,4.47-.19.31-1.07,2.65-1.59,1.27,0,0,0,0,0,0,.51,1.38,1.39-.96,1.58-1.28.44-.73,2.39-4.41,2.64-4.47,6.86-.51,14.83.77,21.54.07,1.04-.11,1.38-.64,1.52-.67l-24.33-.04s0,0,0-.01l24.35.04c.21-.05.44-.55.62-.62,2.14-.78,1.22-.21,3.32-1.46,4.59-2.73,11.7-2.81,16.98-2.34-4.91-9.17-9.26-18.77-14.25-27.91-2.33-4.26-4.72-8.55-7.33-12.64h0s.01-.02.01-.02c2.61,4.09,5.01,8.38,7.33,12.64,4.99,9.15,9.34,18.74,14.25,27.91.1.19.97.64,1.39,1.43,5.86,10.94,11.45,22.02,17.64,32.78h-.03ZM133.27,134.27h-.01v-12.68s0,0,.01,0v12.68ZM134.21,154.12c.08-6.71-.34-13.59-.31-19.85-.03,6.26.39,13.14.31,19.85ZM152.94,122.23c-.62-.62-.63-.57-1.52-.67-3.8-.43-9.71-.08-13.71.03-.05,0-.1,0-.16,0h0c-1.43.04-2.86-.03-4.28,0,1.42-.03,2.85.03,4.27,0l-4.92-.62v48.14c-.21.84-.68,1.6-.63,2.49,0,0,0,0-.01,0-.07-.91.42-1.68.63-2.53v-48.15l5.08.64c4-.11,9.91-.45,13.71-.03.88.1.9.05,1.52.67.08.08.15.19.21.33-.06-.13-.13-.23-.2-.3ZM153.77,156.14c.08.19.18.37.29.6-.11-.23-.21-.4-.29-.6ZM154.16,157.94c-.02-.22.04-.45.06-.64-.02.19-.08.42-.06.64ZM185.32,157.42c5.27-1.2,12.28-5.1,13.93-9.82-1.65,4.73-8.66,8.62-13.93,9.82ZM203.04,129.2c-.28.1-.52.63-.6.63.47,4.59-.52,8.84-1.27,13.3.07-.08.71.24,1.12-.18-.41.43-1.06.11-1.13.19-1.74,1.92-1.26,2.56-1.9,4.43,0,0,0,0,0,0-11.28,13.87-29.37,8.48-45.06,9.5,0,0,0-.01,0-.02,15.69-1.02,33.78,4.38,45.06-9.5.64-1.86.16-2.51,1.9-4.43.75-4.46,1.74-8.7,1.27-13.3,0,0,0,0,.01,0,.09-.01.33-.56.62-.64,0,0,0,.01,0,.02ZM203.7,132.36s0,0,0,0h0s0,0,0,0ZM224,129.19h0s-20.29,3.17-20.29,3.17c0,0,0,0,0,0l20.3-3.17s0,0,0,0ZM222.3,120.3c-2.7-7.98-8.35-13.53-16.69-17.73-4.44-2.23-7.51-4-12.69-4.43-.42-.03-.85.03-1.27,0h.01s-.08,0-.11,0l-10.98-1.91-61.55.02-.04-.05,61.58-.02,11.08,1.93c.42.03.85-.03,1.27,0,5.18.42,8.25,2.2,12.69,4.43,8.35,4.2,14,9.76,16.7,17.77Z" fill="#fff"/>
      <polygon points="19.04 173.54 19.05 173.53 19.03 173.53 19.04 173.54" fill="#fff"/>
      <path d="M394.71,56.33l.06.05s-.05-.04-.06-.06h0Z" fill="#fff"/>
      <path d="M350.29,49.35s0,0-.02,0c-.69-.55-1.2-1.73-2.51-1.88,0,0,0,0-.01-.01-.21-.2-.41-.42-.63-.63,0,0,0,0-.01,0-1.2-1.14-2.2-2.45-3.78-3.15,0,0,0-.01-.01-.02-.2-.22-.4-.44-.63-.63,0,0,0,0-.01,0-.39-.33-.61-.67-1.25-.62,0,0,0,0-.01-.01h-.02c-3.27-3.5-12.07-10.89-16.18-13.32-3.77-2.23-3.6-2.53-6.67,0-.04.03-.07.06-.11.09l-5.74,3.73-1.66,1.8s-.07.05-.11.08c-5.41,3.87-10.77,7.54-15.86,12.04-.02.02-.04.04-.06.06-1.96.83-3.5,2.27-4.96,3.73-.02,0-.04.01-.06.02-.2.21-.41.43-.63.63,0,0-.01.01-.02.02-1.21-.2-1.44.93-1.85,1.25-.01,0-.02,0-.04,0-.24.17-.41.45-.63.63v.04c-2.74,2.16-5.98,3.92-8.8,6.06-2.36,1.8-5.05,3.79-7.05,5.95,6.52-2.45,12.01-7.03,17.77-10.76l-2.23.62v-.02s2.22-.62,2.22-.62c.3-.19.81-.35,1.27-.63.53-1.58,2.1-1.41,3.17-1.9,9.85-4.53,18.46-11.83,28.29-16.48,6.33,3.14,12.43,7.22,18.67,10.78.41.24,1.33.3,2.1.73,1.54.86,8.95,6.52,9.96,5.6l-1.27-2.53c-.22-.17-.4-.45-.63-.63Z" fill="#fff"/>
      <path d="M350.23,104.55c-3.22.32-20.58-.93-21.82.56l-25.7,68.43c6.51-.7,13.02-.64,19.58-.72l3.82-10.94c.73-1.06,22.45-.04,25.69-.29,1.68.57,3.36,11.29,5.25,11.91l19.26-.59-26.09-68.35h.01ZM329.98,147.57c1.84-6.48,4.22-12.83,6.51-19.16.39-1.06.82-3.99,2.37-3.65.14-.4-.31-1.29.63-1.26,1.01-.03,2.22,3.83,2.55,4.74,2.33,6.34,4.77,12.8,6.34,19.33h-18.4ZM375.04,172.26h0l-25.38-66.51c-.4.03-.87-.07-1.26,0v.02c-.22.04-.67.62-1.54.66-2.98.13-14.44-.7-15.92.6v-.02c1.48-1.3,12.94-.47,15.93-.6.87-.04,1.32-.62,1.53-.66l-18.97.06-16.56,44.92c.07-.13.84-.37,1.07-.83-.22.47-1.01.72-1.08.85-.13.24-.98.62-1.45,1.45-2.96,5.27-4.76,14.3-7.43,20.07h0c2.69-5.77,4.48-14.81,7.44-20.09.47-.83,1.32-1.21,1.45-1.45v-.02s16.57-44.92,16.57-44.92l18.97-.06c.38-.07.85.03,1.26,0l25.39,66.53Z" fill="#fff"/>
      <path d="M292.54,104.48l-16.81,48.16-17.77-48.16h-19.04c-.12,0-1.33-1.34-1.49.84,7.2,17.29,13.73,34.85,20.72,52.22.34.85,1.33,1.32,1.39,1.42,0,0,0,.01,0,.02,0,.01,0,.02.01.03.19.57-.01,1.95.42,2.98,1.56,3.82,3.05,7.68,4.73,11.45,7.31-.7,14.76-.92,22.04.02l26.73-68.98h-20.94ZM239.87,107.64c-.14-.36-.11-.84-.31-1.23.22.39.19.87.32,1.24,0,0,0,0,0-.01ZM239.89,107.67h0c.03.07.07.13.12.19-.06-.06-.1-.12-.13-.19ZM239.88,105.76l-.61.31s-.01-.01-.02-.02l.62-.31.32-.62h0s-.32.63-.32.63c.21-.01.42.02.63,0h0c-.21.03-.42,0-.63.01ZM259.53,158.95c-6.26-15.11-13.62-32.7-18.4-48.15-.25-.82-.4-1.69-.63-2.52h0c.24.84.38,1.71.64,2.54h0c4.78,15.45,12.12,33.04,18.39,48.14h-.01ZM280.51,145.01c.14-.16,1.09-.39,1.09-1.07,0,.67-.95.91-1.09,1.07ZM311.28,105.12c-2.85-.34-4.92.33-7.31.63-.06.01-.39.51-.96.62.57-.11.9-.62.96-.62h0s-10.07.08-10.07.08l-13.41,39.2h0c-.08.15-.76.32-1.14,1.06-1.19,2.32-.86,6.01-3.62,7.81l-.88-1.01-17.84-47.13c-2.08,1.64-15.09-.07-15.86.64h0c.77-.73,13.78.99,15.86-.65-5.36.33-11.2-.45-16.49,0h0c5.29-.46,11.14.32,16.5,0l17.84,47.13.88,1.01c2.76-1.8,2.43-5.49,3.62-7.81.38-.74,1.06-.91,1.14-1.05l13.41-39.2,10.07-.09c2.39-.3,4.46-.97,7.31-.63.56.07.86-.08.95.11-.09-.18-.4-.03-.95-.09Z" fill="#fff"/>
      <path d="M400.43,105.11h0s-.36-.57-.36-.57c-.5-.15-1.03-.02-1.53-.05v.63h-.01c-5.28.01-10.59.01-15.87.01,0,0,0-.01,0-.02h15.87v-.63h.01c-5.43-.34-11.05.25-16.5,0v34.85l-.03,33.92,44.2.26c.53.15,1.52-.65,1.52-.92v-14.89h-27.29v-52.59ZM382.73,108.05c-.02,2.33-.2,4.72-.18,7.07-.02-2.34.16-4.74.18-7.07ZM382.66,136.17s0,0,0-.01c1.07.19,1.32-.14,1.35-.68-.02.55-.27.88-1.35.69ZM383.92,133.98s0,0,0,0c.03-.99.04-2.01.04-3.06,0,1.05,0,2.07-.04,3.06ZM399.15,106.39h-14.28c-.69,0-.9,1.55-.98,2.19-.22,1.88-.32,3.91-.33,6.02.02-2.12.11-4.15.33-6.03.07-.64.29-2.19.98-2.19h14.28ZM400.43,159.6h0v-.63h0v.63ZM426.45,158.33v13.94h-.01v-13.93h-26.65v-53.22h.01v53.21h26.65Z" fill="#fff"/>
      <path d="M550.18,157.06h-31.09v-10.77h24.43c.07,0,.95-.88.95-.95v-13.3c0-.69-1.55-.91-2.19-.98-3.95-.47-19.58-.61-23.19.03.4-2.09-1.01-10,1.04-10.67,4.28-1.31,27.45,1.87,29.42-.09-.12-.4-.6-.93-.63-1.27h0l-30.45.64c.49,3.52-.68,8.78,0,12.03.24-.12.5-.61.63-.63,0,0,0,0,0-.01h.02c-.12.02-.38.51-.63.63.06.32.41.45.63.63,7.1-.69,15.92.93,22.81,0,0,0,0,0,0,0-6.89.93-15.7-.69-22.81,0,.35.28.59.43.8.52-.22-.08-.46-.24-.82-.53-.22-.17-.56-.31-.63-.63-.68-3.25.49-8.51,0-12.03l30.45-.64c-.38-3.9.8-8.46-.63-12.04h0c-.1-.25.19-.81-.07-1.17h.02c.27.37-.03.94.07,1.18,1.42,3.58.24,8.14.63,12.04.03.34.51.87.63,1.27,1.58-1.57.12-12.89.63-15.84h-50.13l.63,67.79h.65v-.02c14.59,1.52,33.48-2.04,47.54,0-.39-4.1.53-9.04.02-13.02-.05-.43-.04-.81-.42-.9.42.07.4.46.46.91.51,3.98-.41,8.92-.02,13.02.29.04.56.33.63.63.62.03.59-.41.65-.92.58-4.55-.47-10.23-.02-14.92ZM543.22,131.72v13.94c-.04.05-.08.06-.13.06.03,0,.07-.02.09-.06v-13.94c-.09-.03-.18-.05-.26-.05.09,0,.19.01.3.05ZM502.58,119.68c-1.11.14-.6-1.43-.63-2.21-.14-3.55.64-7.73-.61-11.02v-.03c1.26,3.29.47,7.5.62,11.06.03.78-.48,2.34.62,2.21h0ZM547.6,158.35h-28.51c.1.24-.19.79.06,1.15h-.02c-.27-.36.03-.93-.07-1.17-1.5-3.78-.21-9.12-.63-13.3h.04c.42,4.17-.88,9.51.63,13.3h28.93l-.43.02Z" fill="#fff"/>
      <polygon points="383.93 43.66 383.93 43.66 383.93 43.67 383.93 43.66" fill="#fff"/>
      <path d="M380.76,32.89c.31.29-.34,6.82.13,8.42.55,1.89,2.42,1.81,3.04,2.35v-.62c-.56-.2-1.81-.52-1.93-1.06-.18-.79-.19-1.83-.17-2.95-.01,1.12,0,2.15.17,2.94.13.54,1.37.87,1.93,1.06h0c4.93,1.7,5.92-2.05,8.64-2.37,2.29-.27,5.24,2.4,7.86,1.73.02-.74.02-1.47.02-2.21,0,.74,0,1.48-.02,2.21h0s0,0,0,.01h0c0,.22,0,.45,0,.69,0-.23,0-.46,0-.69-2.63.66-5.56-2-7.85-1.73-2.72.32-3.71,4.06-8.64,2.36v.63c3.26,2.84,6.19,5.53,10.15,7.6.69.37,1.46.52,1.9,1.27.2.01.49.05.63,0,3.4-1.14,3.79-4.25,3.82-7.25-.02,3-.41,6.12-3.82,7.26.29,2.31,2.76,3.26,4.44,4.43v-23.13c0-1.08,3.02-.85,3.15-.98.33-.32.49-8.28-1.01-8.76-3.76.51-23.19-1.08-25.02.19-.78.54-.91,8.3-.6,8.6.24.24,2.94-.23,3.18,0ZM400.43,33.53h0c-.01.74-.01,1.47-.01,2.21,0-.74,0-1.47.01-2.21ZM378.99,25.68c.15.11.36.17.45.21-.09-.03-.3-.09-.45-.21ZM381.39,33.53h0c.43,1.24.46,2.83.45,4.37.02-1.54-.02-3.13-.45-4.37ZM378.85,25.3c4.49.36,9.67-.83,13.96.62h-.01c-4.28-1.44-9.45-.25-13.95-.62,0,0,0,0,0,0Z" fill="#fff"/>
      <path d="M490.54,104.48h0c.05.49-.58,1.04-.63,1.27-.07.37.02.85,0,1.27h-.01c.02-.42-.07-.91,0-1.27h.01c.04-.24.68-.78.63-1.27-1.34-.44-8.63-.03-10.79,0-1.27.01-2.55-.07-3.81,0h0c-.83.04-1.69-.03-2.52,0,.03.41-.06.87,0,1.27h13.94s-13.96.01-13.96.01c0,0,0,0,0-.01h-.01c-.03-.19-.02-.38,0-.56l-.27,19.59c.06-1,.14-1.98.27-2.93.09-.65.1-.64.66-.9.07-.34.11-.68.13-1.01-.02.34-.06.68-.13,1.02.03-.01.06-.01.1-.02-.03,0-.06,0-.09.02-.56.26-.57.25-.66.9-.13,1.01-.22,2.05-.28,3.12v-.2c-.1,1.77-.11,3.61-.07,5.49v-.32c.14,7.02,1.01,14.62.37,21.1,0,.29-.08.31-.19.23.1.07.18.04.18-.24.62-6.38-.21-13.84-.36-20.77l-.28,20.45s.01.01.02.02c0,0,0,0,0,0-.38-.02-2.11,4.86-4.12,6.34-1.72,1.28-5.18,1.72-5.4,1.9-.02.01,0,.09,0,.2-.01-.11-.02-.19,0-.2-2.3.45-7.98-1-9.52-2.53-.21-.22-2.54-5.09-2.54-5.39v-46.57c-5.41.72-13.34-.98-18.4,0h0v.02c-1.75.33-.6,2.54-.6,4.08.02,13.41-.91,28.34-.03,41.52h-.02c1.39,20.84,18.78,25.91,37.05,24,6.04-.63,10.12-2.99,14.36-6.89.53-.49.78-.73,1.27-1.27,0,0,0,0,0,0,3.75-4.12,5.77-7.78,6.34-13.63.98-10.2,1.26-36.37.03-46.28-.08-.7.28-1.24-.66-1.55ZM473.35,113.03s0,0,0,0c0-.02,0-.05,0-.07,0,.03,0,.05,0,.08ZM473.95,109.25c.06-.42.11-.84.12-1.28,0,0,0,0,0,0,0,.44-.05.86-.12,1.28ZM450.4,117.88c.02-1.99-.01-3.95-.11-5.86.1,1.91.13,3.87.11,5.86ZM449.84,148.01c-.1-1.26-.18-2.53-.22-3.83.04,1.3.12,2.58.22,3.83ZM449.28,106.38c-.17-.22-.31-.56-.63-.63-.8-.54-2.18-.8-3.53-.8,1.36,0,2.74.26,3.54.8.32.06.45.41.63.63h0l-15.23.63,15.23-.63ZM446.92,105.6c.44,0,.86.03,1.22.07-.36-.04-.78-.06-1.22-.07ZM433.43,105.75h-.02c-.02-.24-.24-.47-.48-.58.25.1.48.33.5.58ZM433.42,126.02h0c-.13-.08-.24-.18-.33-.29.09.11.2.21.33.29ZM433.34,153.67c.22,1.04.49,2.04.8,3-.31-.96-.58-1.96-.8-3ZM434.17,131.56c-.02.49-.04.88-.08,1.18-.08.72-.42,1.17-.58,1.38.16-.21.49-.66.58-1.38.04-.29.06-.69.08-1.18s.02-1.06.02-1.7c0,.64,0,1.22-.02,1.7ZM442.57,168.32c.74.53,1.52,1.02,2.33,1.47-.81-.45-1.59-.94-2.33-1.47ZM446.88,170.78c1.16.52,2.37.98,3.64,1.36-1.27-.38-2.48-.84-3.64-1.36ZM453.75,156.74c.01.29.06.72.41.97-.35-.25-.4-.68-.41-.97ZM475.35,120.6c-.06.28-.22.38-.41.4.18-.03.33-.13.4-.4.46-1.97-.53-13.1-.04-13.58h.01c-.48.49.5,11.61.04,13.58ZM489.27,105.75c-.04-.47-.49-.71-.95-.71.45,0,.91.24.96.71h-.01Z" fill="#fff"/>
      <path d="M321.1,57.28c0-.07-.88-.95-.95-.95h-13.96c-.21.32-.95.78-.95.95v13.3c0,.07.88.95.95.95h13.96c.07,0,.95-.88.95-.95v-13.3ZM318.42,57.63c-.96-.02-1.94-.08-2.89-.09.95,0,1.93.07,2.89.09ZM319.84,70.28h-13.33s0,0,0,0h13.32v-12.67s0,0,.01,0v12.68Z" fill="#fff"/>
      <path d="M320.15,75.34h-13.96c-.21.32-.95.78-.95.95v13.3c0,.07.88.95.95.95h13.96c.07,0,.95-.88.95-.95v-13.3c0-.07-.88-.95-.95-.95ZM314.11,75.98h0s0,0-.01,0c0,0,0,0,.01,0ZM319.84,89.28h-13.33s0,0,0,0h13.32v-13.29s0,0,.01,0v13.3Z" fill="#fff"/>
      <path d="M340.14,57.28c0-.07-.88-.95-.95-.95h-13.33c-.07,0-.95.88-.95.95v14.25h14.28c.07,0,.95-.88.95-.95v-13.3Z" fill="#fff"/>
      <path d="M324.91,90.55h14.28c.07,0,.95-.88.95-.95v-14.26h-15.23v15.21ZM326.19,75.97c.68.01,1.37.01,2.05,0-.69,0-1.37,0-2.05,0h0ZM334.43,75.97c-.68-.02-1.37-.03-2.06-.03.69,0,1.38,0,2.07.03.73.02,1.48.01,2.22,0-.74,0-1.49.02-2.23,0-1.46,2.47-5.73.83-8.24,1.27,2.51-.43,6.78,1.19,8.24-1.27ZM326.18,77.24c-.24,4.01-1.03,7.97-.63,12.04-.4-4.07.38-8.04.63-12.04Z" fill="#fff"/>
      <path d="M228.17,87.42c-6.98.97-16.26-.82-23.51-.04l.31-2.54c-1.35,1.01-4.24,1.79-5.08,3.8h28.24c.47,0,6.35-4.94,7.3-5.7-2.23-.3-5.72,4.27-7.26,4.48Z" fill="#fff"/>
      <path d="M194.11,58.28l-13.24,9.17c-7.65,6.97-16.73,12.92-24.57,19.91,0,0,0,0,0,0,7.84-6.99,16.92-12.93,24.57-19.91l13.3-9.21s-.03.03-.05.04l.07-.05h0c.22-.2.4-.44.62-.63.07-.07-.19-.78.14-1.12,1.26-1.27,5.21-3.47,6.85-4.59,1.66-1.32,3.4-2.52,5.08-3.8,2.72-3.17,6.58-5.37,9.23-8.25.09-.02.18-.03.28-.02-.1,0-.19,0-.27.02-2.64,2.87-6.49,5.07-9.2,8.22,2.67-2.03,5.79-3.79,8.04-6.31l2.26-.53,19.27,15c1.38.27,4.66-3.29,5.93-4.33,0,0,0,0,0,0h0c1.68-.25,5.38-3.78,6.98-5.06l-30.87-24.72c-1.21-.22-1.81.03-2.14.4.33-.38.92-.63,2.15-.41l30.87,24.72c.32-.25,1.78.64,1.26-1.25l-34.42-25.27c-27.52,21.58-55.47,42.73-82.31,65.15.45-.05.94-.11,1.43-.18-.5.08-.99.14-1.44.19h.01s-.02,0-.03,0h0s-.01,0-.02.01c-.23.19-.41.44-.63.63,0,0,0,0,0,0-.57.48-2.91.84-3.16,2.52l26-.35c12.45-10.22,25.75-19.49,38.02-29.99ZM242.42,51.85c0-.1-.06-.34-.05-.57,0,.23.05.47.05.57ZM241.14,51.9s0,0,0,0c0,0,0,0,0,0h0s0,0,0,0c0,0,0,0,0,0-.24.39-.57.81-.97,1.21.39-.4.73-.82.96-1.21-3.12-.06-3.32-1.44-6.33,1.89,0,0,0,0,0,0,3.04-3.34,3.22-1.96,6.35-1.9ZM212.66,23.46c1-.55,2.81.65,3.03.48,0,0,0,0,0,.01-.22.16-2.03-1.04-3.03-.48,0,0,0,0,0,0ZM211.95,25.29s0,0,0,0h0s0,0,0,0ZM191.65,41.12c4.37-5,15.03-10.47,20.29-15.83,0,0,0,0,0,0-5.27,5.36-15.93,10.83-20.3,15.83.11.33.29.47.52.51-.23-.02-.42-.17-.54-.49,0,0,.01-.02.02-.02ZM186.26,44.92l.3,2.41s-.02.07-.02.12l-.31-2.49s.02-.02.03-.04ZM161.19,65.18c4.64-3.4,10.36-7.61,14.59-11.39.14.03.24.09.29.16-.06-.07-.15-.12-.29-.15h0c-4.23,3.79-9.97,8.01-14.6,11.41.09.27.21.43.34.52-.14-.08-.26-.25-.35-.53,0,0,.02-.01.03-.02ZM159.62,66.08c-.51.19-.83.2-1.18.34.35-.15.68-.15,1.18-.34ZM155.47,70.89v-.63l-.31-.62-.32.62-17.74,14.55s-.03.02-.05.02c-.13.06-.28.1-.42.14.15-.05.31-.09.44-.15l17.77-14.57.32-.62.32.62v.63c.13-.08.62.13.96-.01-.33.16-.82-.04-.97.02Z" fill="#fff"/>
      <path d="M359.18,58.24c.33.21.75,1.23,1.41,1.41l11.28,6.82c-3.23-3.17-6.9-6.08-10.48-8.88-.58-.45-1.36-.47-1.57-.62,0,0,0,0,0-.01-1.57-1.23-3.15-2.18-4.44-3.17.04.04.06.09.07.14,0-.05-.03-.09-.07-.13-.37-.34-1.22.02-1.39.34.15-.33,1.02-.7,1.39-.35-1.3-1-2.81-2.53-4.44-3.8l1.27,2.53c-1.01.93-8.42-4.74-9.96-5.6-.77-.43-1.69-.49-2.1-.73,5.92,4.66,12.73,8,19.04,12.04.84.05,1.2.06,1.25-.11-.04.18-.39.17-1.25.12Z" fill="#fff"/>
      <path d="M206.88,48.1s.02-.02.03-.03c0,0-.02.01-.03.02h0Z" fill="#fff"/>
      <path d="M293.81,20.22c-4.6,2.78-8.32,5.79-12.69,8.87l3.65-1.7c2.97-2.41,6.03-4.83,9.04-7.17Z" fill="#fff"/>
      <path d="M387.73,70.9c9.94,7.92,20.2,15.49,30.14,23.44h26.34l-49.44-37.96c.61.58,2.04,1.68,2.15,1.86.47.82.18,2.28.36,2.47.33.34,7.76.18,6.26,5.35-.11.26-.25.45-.4.58.15-.13.28-.32.39-.57,1.5-5.17-5.93-5.01-6.26-5.35-.18-.18.11-1.65-.36-2.47-.11-.19-1.64-1.36-2.21-1.92-.21-.2-.4-.45-.63-.63,0,0,0,0,0,0-.71-.57-1.36-.86-1.9-1.27.33.34.48.81.86,1.08-.38-.26-.54-.73-.87-1.07,0,0,0,0,0,0,0,0,0,0,0,0,0,0,0,0,0,0,0,0,0,0,0,0-5.22-5.37-12.21-9.5-17.91-13.93-9.43-7.32-18.84-14.8-28.26-22.15-1.65-1.28-3.97-2.94-5.86-3.83h0s0,0,0,0c-.81-.61-1.75-1.3-2.54-1.9-.97-.74-2.15-.94-2.92-1.52-3.57-2.68-7.14-5.63-10.4-8.62l-.02.02c-1.98-1.05-4.24-.92-6.03.27,1.8-1.21,4.07-1.35,6.07-.29,3.26,3,6.83,5.94,10.4,8.62.77.58,1.94.78,2.92,1.52-3.96-3.51-8.34-7.01-12.69-10.14h.02c-1.35-.97-2.66-3.22-4.42-2.23-7.92,6.35-16.69,11.65-24.73,17.81-.93.71-1.47,1.78-1.95,2.16.19-.12,1.6-.29,2.63-.84.13-.07.27-.15.42-.25-.16.11-.31.2-.45.27-1.03.55-2.43.72-2.63.84-3,2.33-6.07,4.76-9.04,7.17l-3.65,1.7c-5.02,3.53-9.92,6.9-14.6,10.77-1.93,1.6-2.36,1.85-4.44,3.17-.15.1-.47-.09-.62,0,0,0,0-.01,0-.02-14.11,9.05-29.02,20.98-42.67,31.07-1.35,1-3.26,2.44-4.27,3.76,0,0,0,0,0,0-3.52,1.32-6.53,4.74-9.52,6.97l-.31,2.54c7.26-.78,16.53,1.01,23.51.04,1.53-.21,5.02-4.78,7.26-4.48.23-.18.4-.44.62-.62,0,0,0,0,.01-.01,2.11-1.69,4.17-3.76,6.38-5.36.52-.38,1.27-.95,2.06-1.42-.79.48-1.55,1.05-2.07,1.43-2.21,1.6-4.26,3.67-6.38,5.36,3.84-1.98,7.25-5.05,10.79-7.6h-.01c-.67-.05-1.51.32-2.31.8.8-.48,1.64-.85,2.32-.81.44-.32.8-.94,1.27-1.27v-.59s0,0,.01,0v.6c8.76-6.3,17.78-12.44,26.5-18.9l.14-.08c.23-.17.4-.46.63-.63.96-.71,1.93-1.42,2.89-2.13l30.58-22.36c.69-.49,1.38-1,2.07-1.49,1.82-1.3,3.32-2.43,5.08-3.8.02-.01.03-.03.05-.04,2.55-.43,4.03-4.21,6.76-2.69l42.49,32.33c.07.06.13.12.2.18.21.2.41.43.63.63.02,0,.03,0,.05,0,1.29,1.2,2.55,2.8,4.35,3.12.01.01.03.04.04.04.21.2.41.43.63.63l.06.04c2.27,2.04,4.64,4.51,7.54,5.63,0,0,0,.03.01.03.22.19.4.44.63.63.02,0,.04,0,.06,0,2.65,2.26,5.51,4.16,8.22,6.32h0ZM398.14,70.23c.46-1.03.21-2.94.95-3.5,0,0,0,0,0,0-.73.57-.48,2.47-.94,3.49-.88,1.99-1.96,2.92-3.16,3.18,1.19-.26,2.27-1.19,3.15-3.17ZM239.11,62.25c-4.72,3.26-8.91,6.31-13.84,9.32-2.18,1.33-4.41,2.54-6.58,3.92-.6.38-1.43.31-1.67.9.22-.62,1.08-.54,1.68-.92,2.17-1.38,4.4-2.59,6.58-3.92.02-.02.05-.04.07-.06,4.9-2.99,9.08-6.03,13.76-9.27.57-.4.79-.6.81-.71.03.1-.18.31-.81.74ZM259.63,45.36c-6.98,5.59-13.92,10.79-20.99,16.04,0,0-.01,0-.02,0,7.09-5.26,14.03-10.46,21.02-16.06.68-.55,1.5-.8,1.74-1.64-.23.86-1.06,1.11-1.75,1.66ZM306.48,13.9l-.9-1.23c-.24,0-.63.2-1.12.52.5-.33.91-.53,1.15-.54l.88,1.2s0,.03,0,.05ZM317.15,5.86c-3.33,2.26-6.52,4.71-10,6.76,0,0,0,0,0,0,0-.01.02-.02.03-.03,3.47-2.05,6.65-4.49,9.99-6.76.41-.27.64-.46.74-.58-.09.12-.32.31-.76.61ZM357.91,28.19c9.59,7.39,19.1,14.72,28.75,22.06-9.65-7.34-19.16-14.67-28.75-22.06Z" fill="#fff"/>
      <path d="M262.09,43.03c2.08-1.32,2.51-1.57,4.44-3.17l-4.44,3.17Z" fill="#fff"/>
      <path d="M201.8,51.9h.01c-1.64,1.11-5.59,3.31-6.85,4.58-.34.34-.07,1.06-.14,1.12,2.8-1.09,4.79-3.95,6.98-5.7Z" fill="#fff"/>
      <path d="M290.01,53.8c1.04-.64,2.38-.84,3.17-1.9-1.07.49-2.63.32-3.17,1.9Z" fill="#fff"/>
      <path d="M394.08,51.26c.4.92.9,1.22,1.9,1.27-.44-.75-1.21-.91-1.9-1.27Z" fill="#fff"/>
      <polygon points="55.84 146.93 55.84 146.94 55.84 146.94 55.84 146.93" fill="#fff"/>
      <polygon points="338.87 124.76 338.86 124.76 338.86 124.77 338.87 124.76" fill="#fff"/>
      <path d="M332.83,146.94c3.1.28,8.36.26,11.49.03,1.07-.08,1.29.15,2.17-.67h-15.24c.03.95.91.58,1.58.64Z" fill="#fff"/>
    </g>
    <path d="M171.34,209.02c.54-1,1.14-2.83,1.89-3.5,1.89-1.71,1.16,2.35,1.28,3.5-.44,2.03-2.9,2.4-4.72,2.58-.63.06-2.44.35-2.25-.67,3.22.29,2.73.08,3.8-1.91Z" fill="#cd944e"/>
    <path d="M171.97,198.25c-.6.99-2.04,4.04-2.86,4.43-1.26.6-1.88-3.11-2.21-3.8-.26-2.63.94-.18,2.33-.1.97.06,1.76-1.61,2.75-.53h0Z" fill="#cd944e"/>
    <path d="M298.25,203.96c.12-.78-.19-3.63,0-3.81.21-.2,4.78-.75,5.43.64,1.32,2.84-3.41,3.77-5.43,3.16h0Z" fill="#cc8d41"/>
    <path d="M144.05,208.39c-2,1.73-3.13,2.49-5.88,1.12-6.86-3.42-.5-14.33,6.05-9.34.83.63.34,1.07.46,1.26-1.72,2.19-2.8,4.59-.63,6.97h0Z" fill="#cd944e"/>
    <path d="M144.05,208.39c-2.17-2.38-1.08-4.78.63-6.97,1.95,3.15,2.19,4.52-.63,6.97Z" fill="#cc8d41"/>
    <path d="M323.18,200.34c6.02-4.81,12.64,4.07,7.48,8.41-6.32,5.3-11.79-4.96-7.48-8.41Z" fill="#cd944e"/>
    <path d="M117.4,202.05c-3.19-.23-4.15-3.76-.95-3.2.64.11-.13,1.58.95,1.29l.64-3.16c0,1.58.02,3.17,0,4.75-.12.42-.44.25-.63.32h-.01Z" fill="#c48136"/>
    <path d="M201.16,199.52c-.63,1.36-5.43.32-6.98.64l1.27,2.53c-.73-.07-1.77.15-2.26-.59-2.85-4.25,5.91-3.39,7.97-2.58h0Z" fill="#d7a15c"/>
    <path d="M276.05,204.59c-1.23-10.48,8.96-1.72,2.08-.14-.69.16-1.38.18-2.08.14Z" fill="#cd944e"/>
  </g>
</svg>